M48
;GenerationSoftware,Autodesk,EAGLE,9.2.2*%
;CreationDate,2019-02-28T17:44:13Z*%
FMAT,2
ICI,OFF
METRIC,TZ,000.000
T19C0.350
T18C0.600
T17C0.800
T16C0.900
T15C0.965
T14C1.000
T13C1.016
T12C1.100
T11C1.200
T10C1.300
T9C1.500
T8C1.600
T7C1.800
T6C2.000
T5C2.350
T4C2.800
T3C3.400
T2C3.500
T1C4.200
%
G90
M71
T1
X6650Y136120
X63400Y86120
X63400Y136120
X136650Y86120
X136650Y136120
X6650Y86120
T2
X38980Y10040
X38980Y60840
X145680Y60840
X145680Y9990
T3
X232000Y248000
X6970Y233590
X28370Y193890
X244000Y10000
X10000Y10000
X10000Y244000
T4
X249070Y97500
X249070Y112500
X249070Y232500
X249070Y247500
X249070Y210000
X249070Y225000
X249070Y120000
X249070Y135000
X249070Y142500
X249070Y157500
X249070Y187500
X249070Y202500
X249070Y165000
X249070Y180000
T5
X245070Y225000
X245070Y135000
X245070Y142500
X245070Y157500
X245070Y187500
X245070Y202500
X245070Y180000
X245070Y120000
X245070Y247500
X245070Y232500
X245070Y112500
X245070Y97500
X245070Y165000
X245070Y210000
T6
X145680Y53220
X145680Y46870
X145680Y40520
X145680Y30360
X145680Y24010
X145680Y17690
X38980Y37980
X38980Y48140
T7
X212290Y13130
X212290Y28330
T8
X239700Y27250
X239700Y54550
X239700Y52250
X239700Y47750
X239700Y45450
X239700Y29550
X13760Y51600
X239700Y70450
X239700Y72750
X239700Y22750
X239700Y20450
X13760Y53900
X13760Y58400
X13760Y60700
X239700Y79550
X239700Y77250
T9
X28370Y233590
X6970Y193890
T10
X209850Y55730
X232350Y55730
T11
X212290Y16930
X184390Y13130
X184390Y20730
X184390Y28330
X212290Y24530
X212290Y20730
T12
X218490Y243020
X213490Y243020
X218490Y248020
X213490Y248020
T13
X225280Y225410
X222740Y235570
X222740Y233030
X222740Y230490
X222740Y227950
X222740Y225410
X225280Y235570
X225280Y233030
X225280Y230490
X225280Y227950
T14
X246340Y192925
X243800Y197725
X243800Y192275
X243800Y195000
X241260Y151500
X241260Y148500
X246340Y152075
X246340Y150000
X246340Y147925
X243800Y152725
X243800Y147275
X243800Y150000
X241260Y129000
X241260Y126000
X246340Y129575
X246340Y127500
X246340Y125425
X243800Y130225
X243800Y124775
X243800Y127500
X241260Y219000
X241260Y216000
X246340Y219575
X246340Y217500
X246340Y215425
X243800Y220225
X243800Y214775
X243800Y217500
X246340Y170425
X246340Y172500
X246340Y174575
X241260Y171000
X241260Y241500
X241260Y193500
X246340Y242075
X246340Y240000
X246340Y237925
X243800Y242725
X241260Y174000
X243800Y240000
X247900Y41750
X249700Y58250
X247900Y58250
X232400Y36100
X241260Y106500
X241260Y103500
X246340Y107075
X246340Y105000
X246340Y102925
X243800Y107725
X243800Y102275
X243800Y105000
X249700Y41750
X118990Y62110
X122800Y62110
X126610Y62110
X243800Y169775
X243800Y172500
X241260Y196500
X243800Y175225
X246340Y197075
X3760Y64400
X5560Y64400
X3760Y47900
X5560Y47900
X249700Y66750
X246340Y195000
X249700Y83250
X247900Y83250
X241260Y238500
X38980Y27820
X38980Y24010
X138040Y62110
X249700Y16750
X247900Y16750
X249700Y33250
X247900Y33250
X134230Y62110
X247900Y66750
X130420Y62110
X243800Y237275
T15
X180870Y191670
X180870Y189130
X180870Y186590
X180870Y181510
X180870Y178970
X180870Y176430
X180870Y173890
X180870Y171350
X180870Y168810
X196110Y163730
X180870Y166270
X180870Y163730
X196110Y161190
X180870Y161190
X196110Y196750
X180870Y196750
X196110Y199290
X196110Y201830
X196110Y204370
X196110Y206910
X196110Y209450
X196110Y211990
X196110Y214530
X196110Y217070
X196110Y219610
X180870Y219610
X180870Y217070
X180870Y214530
X180870Y211990
X180870Y209450
X180870Y206910
X180870Y204370
X180870Y201830
X180870Y199290
X183410Y163730
X183410Y168810
X183410Y171350
X183410Y173890
X180870Y184050
X196110Y166270
X196110Y168810
X196110Y171350
X196110Y173890
X196110Y176430
X196110Y178970
X196110Y181510
X196110Y184050
X196110Y186590
X196110Y189130
X196110Y191670
X196110Y194210
X180870Y194210
T16
X176310Y235500
X176310Y238040
X176310Y240660
X176310Y243120
X158530Y238040
X158530Y240580
X192350Y134200
X192350Y126700
X158530Y235500
X158530Y232960
X187350Y119000
X192350Y119000
X197350Y119000
X197350Y111500
X192350Y111500
X187350Y111500
X98960Y162500
X83960Y162500
X78960Y162500
X73960Y162500
X73960Y170000
X78960Y170000
X83960Y170000
X98960Y170000
X172350Y134200
X187350Y134200
X172350Y119000
X197350Y134200
X197350Y126700
X187350Y126700
X172350Y126700
X172350Y111500
X176310Y230420
X176310Y232960
T17
X21650Y153120
X31730Y153120
X29190Y153120
X24190Y153120
X153650Y102230
X153650Y104770
X153650Y107310
X153650Y109850
X153650Y114930
X153650Y117470
X153650Y120010
X153650Y112390
T18
X44500Y205400
X68700Y187958
X45900Y189700
X155900Y33500
X41800Y158600
X76840Y195300
X76840Y185400
T19
X165100Y51800
X222600Y38900
X155900Y143600
X160200Y18500
X161000Y184030
X176000Y160900
X191900Y195500
X187300Y229900
X199900Y250000
X199800Y239200
X187400Y240200
X217300Y214500
X217300Y222700
X159500Y136400
X157700Y149800
X160500Y130800
X164400Y138300
X220100Y150600
X141600Y185800
X99400Y189525
X141600Y188100
X99400Y190800
X167900Y136100
X213400Y158100
X214700Y147400
X220400Y124900
X232500Y127400
X227400Y122300
X111000Y166500
X164400Y115900
X184700Y115900
X226900Y107700
X201600Y125900
X201600Y130000
X207800Y107600
X226400Y123400
X231400Y128400
X191300Y141100
X162700Y97700
X162700Y94800
X189400Y103200
X213000Y124400
X210100Y146000
X210100Y153600
X239000Y247900
X247000Y228700
X247000Y183900
X209600Y170400
X248000Y62300
X248000Y37000
X237000Y4000
X249000Y102800
X251700Y100100
X217000Y121100
X219400Y144900
X212400Y154200
X229800Y157200
X205500Y121200
X196300Y109600
X179000Y4000
X98000Y4000
X98000Y60600
X98000Y97900
X98000Y140500
X98000Y175800
X98000Y198600
X98000Y227000
X199200Y93200
X196300Y89100
X199200Y74700
X196300Y69500
X199200Y55100
X248000Y87900
X225500Y162400
X170900Y67000
X172600Y181500
X170900Y105300
X170900Y86600
X66000Y180500
X219800Y166400
X207300Y243200
X192000Y180300
X213400Y178500
X218200Y174700
X186200Y183800
X222800Y103300
X230400Y130600
X213300Y130600
X234600Y215400
X236000Y235200
X219800Y229700
X221600Y237800
X232100Y140900
X247000Y138900
X210900Y164700
X214700Y160900
X185700Y244600
X232600Y157200
X186200Y185300
X192000Y185300
X210700Y179900
X238800Y173800
X186400Y193000
X210500Y166700
X215700Y162300
X201400Y105900
X207800Y105000
X209800Y174800
X203600Y174800
X186400Y190400
X191900Y190400
X210600Y191800
X229300Y190300
X209800Y176400
X201000Y176400
X208500Y184100
X212200Y193600
X208500Y173800
X203600Y173800
X207000Y152100
X216300Y196400
X219100Y160900
X208800Y160600
X214500Y196400
X215000Y159800
X218900Y147500
X223000Y146800
X204500Y170400
X213100Y159500
X199900Y247600
X207400Y232900
X185700Y234400
X199800Y237000
X232900Y220000
X233000Y211700
X204000Y146700
X191200Y138500
X227600Y174900
X234600Y180300
X177500Y25300
X172600Y189200
X199200Y172000
X167800Y192100
X104300Y188800
X154500Y143600
X157600Y60900
X216300Y169100
M30