G04 EAGLE Gerber RS-274X export*
G75*
%MOMM*%
%FSLAX34Y34*%
%LPD*%
%IN*%
%IPPOS*%
%AMOC8*
5,1,8,0,0,1.08239X$1,22.5*%
G01*
%ADD10C,0.254000*%


D10*
X0Y0D02*
X2540000Y0D01*
X2540000Y2540000D01*
X0Y2540000D01*
X0Y0D01*
X888000Y1359000D02*
X952000Y1359000D01*
X952000Y2348000D01*
X888000Y2348000D01*
X888000Y1359000D01*
X2337000Y2479443D02*
X2336927Y2478333D01*
X2336782Y2477229D01*
X2336565Y2476138D01*
X2336277Y2475063D01*
X2335919Y2474009D01*
X2335493Y2472980D01*
X2335001Y2471982D01*
X2334444Y2471018D01*
X2333826Y2470093D01*
X2333148Y2469210D01*
X2332414Y2468373D01*
X2331627Y2467586D01*
X2330790Y2466852D01*
X2329907Y2466174D01*
X2328982Y2465556D01*
X2328018Y2464999D01*
X2327020Y2464507D01*
X2325991Y2464081D01*
X2324937Y2463723D01*
X2323862Y2463435D01*
X2322771Y2463218D01*
X2321667Y2463073D01*
X2320557Y2463000D01*
X2319443Y2463000D01*
X2318333Y2463073D01*
X2317229Y2463218D01*
X2316138Y2463435D01*
X2315063Y2463723D01*
X2314009Y2464081D01*
X2312980Y2464507D01*
X2311982Y2464999D01*
X2311018Y2465556D01*
X2310093Y2466174D01*
X2309210Y2466852D01*
X2308373Y2467586D01*
X2307586Y2468373D01*
X2306852Y2469210D01*
X2306174Y2470093D01*
X2305556Y2471018D01*
X2304999Y2471982D01*
X2304507Y2472980D01*
X2304081Y2474009D01*
X2303723Y2475063D01*
X2303435Y2476138D01*
X2303218Y2477229D01*
X2303073Y2478333D01*
X2303000Y2479443D01*
X2303000Y2480557D01*
X2303073Y2481667D01*
X2303218Y2482771D01*
X2303435Y2483862D01*
X2303723Y2484937D01*
X2304081Y2485991D01*
X2304507Y2487020D01*
X2304999Y2488018D01*
X2305556Y2488982D01*
X2306174Y2489907D01*
X2306852Y2490790D01*
X2307586Y2491627D01*
X2308373Y2492414D01*
X2309210Y2493148D01*
X2310093Y2493826D01*
X2311018Y2494444D01*
X2311982Y2495001D01*
X2312980Y2495493D01*
X2314009Y2495919D01*
X2315063Y2496277D01*
X2316138Y2496565D01*
X2317229Y2496782D01*
X2318333Y2496927D01*
X2319443Y2497000D01*
X2320557Y2497000D01*
X2321667Y2496927D01*
X2322771Y2496782D01*
X2323862Y2496565D01*
X2324937Y2496277D01*
X2325991Y2495919D01*
X2327020Y2495493D01*
X2328018Y2495001D01*
X2328982Y2494444D01*
X2329907Y2493826D01*
X2330790Y2493148D01*
X2331627Y2492414D01*
X2332414Y2491627D01*
X2333148Y2490790D01*
X2333826Y2489907D01*
X2334444Y2488982D01*
X2335001Y2488018D01*
X2335493Y2487020D01*
X2335919Y2485991D01*
X2336277Y2484937D01*
X2336565Y2483862D01*
X2336782Y2482771D01*
X2336927Y2481667D01*
X2337000Y2480557D01*
X2337000Y2479443D01*
X2457000Y99443D02*
X2456927Y98333D01*
X2456782Y97229D01*
X2456565Y96138D01*
X2456277Y95063D01*
X2455919Y94009D01*
X2455493Y92980D01*
X2455001Y91982D01*
X2454444Y91018D01*
X2453826Y90093D01*
X2453148Y89210D01*
X2452414Y88373D01*
X2451627Y87586D01*
X2450790Y86852D01*
X2449907Y86174D01*
X2448982Y85556D01*
X2448018Y84999D01*
X2447020Y84507D01*
X2445991Y84081D01*
X2444937Y83723D01*
X2443862Y83435D01*
X2442771Y83218D01*
X2441667Y83073D01*
X2440557Y83000D01*
X2439443Y83000D01*
X2438333Y83073D01*
X2437229Y83218D01*
X2436138Y83435D01*
X2435063Y83723D01*
X2434009Y84081D01*
X2432980Y84507D01*
X2431982Y84999D01*
X2431018Y85556D01*
X2430093Y86174D01*
X2429210Y86852D01*
X2428373Y87586D01*
X2427586Y88373D01*
X2426852Y89210D01*
X2426174Y90093D01*
X2425556Y91018D01*
X2424999Y91982D01*
X2424507Y92980D01*
X2424081Y94009D01*
X2423723Y95063D01*
X2423435Y96138D01*
X2423218Y97229D01*
X2423073Y98333D01*
X2423000Y99443D01*
X2423000Y100557D01*
X2423073Y101667D01*
X2423218Y102771D01*
X2423435Y103862D01*
X2423723Y104937D01*
X2424081Y105991D01*
X2424507Y107020D01*
X2424999Y108018D01*
X2425556Y108982D01*
X2426174Y109907D01*
X2426852Y110790D01*
X2427586Y111627D01*
X2428373Y112414D01*
X2429210Y113148D01*
X2430093Y113826D01*
X2431018Y114444D01*
X2431982Y115001D01*
X2432980Y115493D01*
X2434009Y115919D01*
X2435063Y116277D01*
X2436138Y116565D01*
X2437229Y116782D01*
X2438333Y116927D01*
X2439443Y117000D01*
X2440557Y117000D01*
X2441667Y116927D01*
X2442771Y116782D01*
X2443862Y116565D01*
X2444937Y116277D01*
X2445991Y115919D01*
X2447020Y115493D01*
X2448018Y115001D01*
X2448982Y114444D01*
X2449907Y113826D01*
X2450790Y113148D01*
X2451627Y112414D01*
X2452414Y111627D01*
X2453148Y110790D01*
X2453826Y109907D01*
X2454444Y108982D01*
X2455001Y108018D01*
X2455493Y107020D01*
X2455919Y105991D01*
X2456277Y104937D01*
X2456565Y103862D01*
X2456782Y102771D01*
X2456927Y101667D01*
X2457000Y100557D01*
X2457000Y99443D01*
X117000Y99443D02*
X116927Y98333D01*
X116782Y97229D01*
X116565Y96138D01*
X116277Y95063D01*
X115919Y94009D01*
X115493Y92980D01*
X115001Y91982D01*
X114444Y91018D01*
X113826Y90093D01*
X113148Y89210D01*
X112414Y88373D01*
X111627Y87586D01*
X110790Y86852D01*
X109907Y86174D01*
X108982Y85556D01*
X108018Y84999D01*
X107020Y84507D01*
X105991Y84081D01*
X104937Y83723D01*
X103862Y83435D01*
X102771Y83218D01*
X101667Y83073D01*
X100557Y83000D01*
X99443Y83000D01*
X98333Y83073D01*
X97229Y83218D01*
X96138Y83435D01*
X95063Y83723D01*
X94009Y84081D01*
X92980Y84507D01*
X91982Y84999D01*
X91018Y85556D01*
X90093Y86174D01*
X89210Y86852D01*
X88373Y87586D01*
X87586Y88373D01*
X86852Y89210D01*
X86174Y90093D01*
X85556Y91018D01*
X84999Y91982D01*
X84507Y92980D01*
X84081Y94009D01*
X83723Y95063D01*
X83435Y96138D01*
X83218Y97229D01*
X83073Y98333D01*
X83000Y99443D01*
X83000Y100557D01*
X83073Y101667D01*
X83218Y102771D01*
X83435Y103862D01*
X83723Y104937D01*
X84081Y105991D01*
X84507Y107020D01*
X84999Y108018D01*
X85556Y108982D01*
X86174Y109907D01*
X86852Y110790D01*
X87586Y111627D01*
X88373Y112414D01*
X89210Y113148D01*
X90093Y113826D01*
X91018Y114444D01*
X91982Y115001D01*
X92980Y115493D01*
X94009Y115919D01*
X95063Y116277D01*
X96138Y116565D01*
X97229Y116782D01*
X98333Y116927D01*
X99443Y117000D01*
X100557Y117000D01*
X101667Y116927D01*
X102771Y116782D01*
X103862Y116565D01*
X104937Y116277D01*
X105991Y115919D01*
X107020Y115493D01*
X108018Y115001D01*
X108982Y114444D01*
X109907Y113826D01*
X110790Y113148D01*
X111627Y112414D01*
X112414Y111627D01*
X113148Y110790D01*
X113826Y109907D01*
X114444Y108982D01*
X115001Y108018D01*
X115493Y107020D01*
X115919Y105991D01*
X116277Y104937D01*
X116565Y103862D01*
X116782Y102771D01*
X116927Y101667D01*
X117000Y100557D01*
X117000Y99443D01*
X117000Y2439443D02*
X116927Y2438333D01*
X116782Y2437229D01*
X116565Y2436138D01*
X116277Y2435063D01*
X115919Y2434009D01*
X115493Y2432980D01*
X115001Y2431982D01*
X114444Y2431018D01*
X113826Y2430093D01*
X113148Y2429210D01*
X112414Y2428373D01*
X111627Y2427586D01*
X110790Y2426852D01*
X109907Y2426174D01*
X108982Y2425556D01*
X108018Y2424999D01*
X107020Y2424507D01*
X105991Y2424081D01*
X104937Y2423723D01*
X103862Y2423435D01*
X102771Y2423218D01*
X101667Y2423073D01*
X100557Y2423000D01*
X99443Y2423000D01*
X98333Y2423073D01*
X97229Y2423218D01*
X96138Y2423435D01*
X95063Y2423723D01*
X94009Y2424081D01*
X92980Y2424507D01*
X91982Y2424999D01*
X91018Y2425556D01*
X90093Y2426174D01*
X89210Y2426852D01*
X88373Y2427586D01*
X87586Y2428373D01*
X86852Y2429210D01*
X86174Y2430093D01*
X85556Y2431018D01*
X84999Y2431982D01*
X84507Y2432980D01*
X84081Y2434009D01*
X83723Y2435063D01*
X83435Y2436138D01*
X83218Y2437229D01*
X83073Y2438333D01*
X83000Y2439443D01*
X83000Y2440557D01*
X83073Y2441667D01*
X83218Y2442771D01*
X83435Y2443862D01*
X83723Y2444937D01*
X84081Y2445991D01*
X84507Y2447020D01*
X84999Y2448018D01*
X85556Y2448982D01*
X86174Y2449907D01*
X86852Y2450790D01*
X87586Y2451627D01*
X88373Y2452414D01*
X89210Y2453148D01*
X90093Y2453826D01*
X91018Y2454444D01*
X91982Y2455001D01*
X92980Y2455493D01*
X94009Y2455919D01*
X95063Y2456277D01*
X96138Y2456565D01*
X97229Y2456782D01*
X98333Y2456927D01*
X99443Y2457000D01*
X100557Y2457000D01*
X101667Y2456927D01*
X102771Y2456782D01*
X103862Y2456565D01*
X104937Y2456277D01*
X105991Y2455919D01*
X107020Y2455493D01*
X108018Y2455001D01*
X108982Y2454444D01*
X109907Y2453826D01*
X110790Y2453148D01*
X111627Y2452414D01*
X112414Y2451627D01*
X113148Y2450790D01*
X113826Y2449907D01*
X114444Y2448982D01*
X115001Y2448018D01*
X115493Y2447020D01*
X115919Y2445991D01*
X116277Y2444937D01*
X116565Y2443862D01*
X116782Y2442771D01*
X116927Y2441667D01*
X117000Y2440557D01*
X117000Y2439443D01*
X37881Y649000D02*
X38439Y648937D01*
X38986Y648812D01*
X39516Y648627D01*
X40022Y648383D01*
X40498Y648084D01*
X40937Y647734D01*
X41334Y647337D01*
X41684Y646898D01*
X41983Y646422D01*
X42227Y645916D01*
X42412Y645386D01*
X42537Y644839D01*
X42600Y644281D01*
X42600Y643719D01*
X42537Y643161D01*
X42412Y642614D01*
X42227Y642084D01*
X41983Y641578D01*
X41684Y641102D01*
X41334Y640663D01*
X40937Y640266D01*
X40498Y639916D01*
X40022Y639617D01*
X39516Y639373D01*
X38986Y639188D01*
X38439Y639063D01*
X37881Y639000D01*
X37319Y639000D01*
X36761Y639063D01*
X36214Y639188D01*
X35684Y639373D01*
X35178Y639617D01*
X34702Y639916D01*
X34263Y640266D01*
X33866Y640663D01*
X33516Y641102D01*
X33217Y641578D01*
X32973Y642084D01*
X32788Y642614D01*
X32663Y643161D01*
X32600Y643719D01*
X32600Y644281D01*
X32663Y644839D01*
X32788Y645386D01*
X32973Y645916D01*
X33217Y646422D01*
X33516Y646898D01*
X33866Y647337D01*
X34263Y647734D01*
X34702Y648084D01*
X35178Y648383D01*
X35684Y648627D01*
X36214Y648812D01*
X36761Y648937D01*
X37319Y649000D01*
X37881Y649000D01*
X55881Y649000D02*
X56439Y648937D01*
X56986Y648812D01*
X57516Y648627D01*
X58022Y648383D01*
X58498Y648084D01*
X58937Y647734D01*
X59334Y647337D01*
X59684Y646898D01*
X59983Y646422D01*
X60227Y645916D01*
X60412Y645386D01*
X60537Y644839D01*
X60600Y644281D01*
X60600Y643719D01*
X60537Y643161D01*
X60412Y642614D01*
X60227Y642084D01*
X59983Y641578D01*
X59684Y641102D01*
X59334Y640663D01*
X58937Y640266D01*
X58498Y639916D01*
X58022Y639617D01*
X57516Y639373D01*
X56986Y639188D01*
X56439Y639063D01*
X55881Y639000D01*
X55319Y639000D01*
X54761Y639063D01*
X54214Y639188D01*
X53684Y639373D01*
X53178Y639617D01*
X52702Y639916D01*
X52263Y640266D01*
X51866Y640663D01*
X51516Y641102D01*
X51217Y641578D01*
X50973Y642084D01*
X50788Y642614D01*
X50663Y643161D01*
X50600Y643719D01*
X50600Y644281D01*
X50663Y644839D01*
X50788Y645386D01*
X50973Y645916D01*
X51217Y646422D01*
X51516Y646898D01*
X51866Y647337D01*
X52263Y647734D01*
X52702Y648084D01*
X53178Y648383D01*
X53684Y648627D01*
X54214Y648812D01*
X54761Y648937D01*
X55319Y649000D01*
X55881Y649000D01*
X37881Y484000D02*
X38439Y483937D01*
X38986Y483812D01*
X39516Y483627D01*
X40022Y483383D01*
X40498Y483084D01*
X40937Y482734D01*
X41334Y482337D01*
X41684Y481898D01*
X41983Y481422D01*
X42227Y480916D01*
X42412Y480386D01*
X42537Y479839D01*
X42600Y479281D01*
X42600Y478719D01*
X42537Y478161D01*
X42412Y477614D01*
X42227Y477084D01*
X41983Y476578D01*
X41684Y476102D01*
X41334Y475663D01*
X40937Y475266D01*
X40498Y474916D01*
X40022Y474617D01*
X39516Y474373D01*
X38986Y474188D01*
X38439Y474063D01*
X37881Y474000D01*
X37319Y474000D01*
X36761Y474063D01*
X36214Y474188D01*
X35684Y474373D01*
X35178Y474617D01*
X34702Y474916D01*
X34263Y475266D01*
X33866Y475663D01*
X33516Y476102D01*
X33217Y476578D01*
X32973Y477084D01*
X32788Y477614D01*
X32663Y478161D01*
X32600Y478719D01*
X32600Y479281D01*
X32663Y479839D01*
X32788Y480386D01*
X32973Y480916D01*
X33217Y481422D01*
X33516Y481898D01*
X33866Y482337D01*
X34263Y482734D01*
X34702Y483084D01*
X35178Y483383D01*
X35684Y483627D01*
X36214Y483812D01*
X36761Y483937D01*
X37319Y484000D01*
X37881Y484000D01*
X55881Y484000D02*
X56439Y483937D01*
X56986Y483812D01*
X57516Y483627D01*
X58022Y483383D01*
X58498Y483084D01*
X58937Y482734D01*
X59334Y482337D01*
X59684Y481898D01*
X59983Y481422D01*
X60227Y480916D01*
X60412Y480386D01*
X60537Y479839D01*
X60600Y479281D01*
X60600Y478719D01*
X60537Y478161D01*
X60412Y477614D01*
X60227Y477084D01*
X59983Y476578D01*
X59684Y476102D01*
X59334Y475663D01*
X58937Y475266D01*
X58498Y474916D01*
X58022Y474617D01*
X57516Y474373D01*
X56986Y474188D01*
X56439Y474063D01*
X55881Y474000D01*
X55319Y474000D01*
X54761Y474063D01*
X54214Y474188D01*
X53684Y474373D01*
X53178Y474617D01*
X52702Y474916D01*
X52263Y475266D01*
X51866Y475663D01*
X51516Y476102D01*
X51217Y476578D01*
X50973Y477084D01*
X50788Y477614D01*
X50663Y478161D01*
X50600Y478719D01*
X50600Y479281D01*
X50663Y479839D01*
X50788Y480386D01*
X50973Y480916D01*
X51217Y481422D01*
X51516Y481898D01*
X51866Y482337D01*
X52263Y482734D01*
X52702Y483084D01*
X53178Y483383D01*
X53684Y483627D01*
X54214Y483812D01*
X54761Y483937D01*
X55319Y484000D01*
X55881Y484000D01*
X2496719Y662500D02*
X2496161Y662563D01*
X2495614Y662688D01*
X2495084Y662873D01*
X2494578Y663117D01*
X2494102Y663416D01*
X2493663Y663766D01*
X2493266Y664163D01*
X2492916Y664602D01*
X2492617Y665078D01*
X2492373Y665584D01*
X2492188Y666114D01*
X2492063Y666661D01*
X2492000Y667219D01*
X2492000Y667781D01*
X2492063Y668339D01*
X2492188Y668886D01*
X2492373Y669416D01*
X2492617Y669922D01*
X2492916Y670398D01*
X2493266Y670837D01*
X2493663Y671234D01*
X2494102Y671584D01*
X2494578Y671883D01*
X2495084Y672127D01*
X2495614Y672312D01*
X2496161Y672437D01*
X2496719Y672500D01*
X2497281Y672500D01*
X2497839Y672437D01*
X2498386Y672312D01*
X2498916Y672127D01*
X2499422Y671883D01*
X2499898Y671584D01*
X2500337Y671234D01*
X2500734Y670837D01*
X2501084Y670398D01*
X2501383Y669922D01*
X2501627Y669416D01*
X2501812Y668886D01*
X2501937Y668339D01*
X2502000Y667781D01*
X2502000Y667219D01*
X2501937Y666661D01*
X2501812Y666114D01*
X2501627Y665584D01*
X2501383Y665078D01*
X2501084Y664602D01*
X2500734Y664163D01*
X2500337Y663766D01*
X2499898Y663416D01*
X2499422Y663117D01*
X2498916Y662873D01*
X2498386Y662688D01*
X2497839Y662563D01*
X2497281Y662500D01*
X2496719Y662500D01*
X2478719Y662500D02*
X2478161Y662563D01*
X2477614Y662688D01*
X2477084Y662873D01*
X2476578Y663117D01*
X2476102Y663416D01*
X2475663Y663766D01*
X2475266Y664163D01*
X2474916Y664602D01*
X2474617Y665078D01*
X2474373Y665584D01*
X2474188Y666114D01*
X2474063Y666661D01*
X2474000Y667219D01*
X2474000Y667781D01*
X2474063Y668339D01*
X2474188Y668886D01*
X2474373Y669416D01*
X2474617Y669922D01*
X2474916Y670398D01*
X2475266Y670837D01*
X2475663Y671234D01*
X2476102Y671584D01*
X2476578Y671883D01*
X2477084Y672127D01*
X2477614Y672312D01*
X2478161Y672437D01*
X2478719Y672500D01*
X2479281Y672500D01*
X2479839Y672437D01*
X2480386Y672312D01*
X2480916Y672127D01*
X2481422Y671883D01*
X2481898Y671584D01*
X2482337Y671234D01*
X2482734Y670837D01*
X2483084Y670398D01*
X2483383Y669922D01*
X2483627Y669416D01*
X2483812Y668886D01*
X2483937Y668339D01*
X2484000Y667781D01*
X2484000Y667219D01*
X2483937Y666661D01*
X2483812Y666114D01*
X2483627Y665584D01*
X2483383Y665078D01*
X2483084Y664602D01*
X2482734Y664163D01*
X2482337Y663766D01*
X2481898Y663416D01*
X2481422Y663117D01*
X2480916Y662873D01*
X2480386Y662688D01*
X2479839Y662563D01*
X2479281Y662500D01*
X2478719Y662500D01*
X2496719Y827500D02*
X2496161Y827563D01*
X2495614Y827688D01*
X2495084Y827873D01*
X2494578Y828117D01*
X2494102Y828416D01*
X2493663Y828766D01*
X2493266Y829163D01*
X2492916Y829602D01*
X2492617Y830078D01*
X2492373Y830584D01*
X2492188Y831114D01*
X2492063Y831661D01*
X2492000Y832219D01*
X2492000Y832781D01*
X2492063Y833339D01*
X2492188Y833886D01*
X2492373Y834416D01*
X2492617Y834922D01*
X2492916Y835398D01*
X2493266Y835837D01*
X2493663Y836234D01*
X2494102Y836584D01*
X2494578Y836883D01*
X2495084Y837127D01*
X2495614Y837312D01*
X2496161Y837437D01*
X2496719Y837500D01*
X2497281Y837500D01*
X2497839Y837437D01*
X2498386Y837312D01*
X2498916Y837127D01*
X2499422Y836883D01*
X2499898Y836584D01*
X2500337Y836234D01*
X2500734Y835837D01*
X2501084Y835398D01*
X2501383Y834922D01*
X2501627Y834416D01*
X2501812Y833886D01*
X2501937Y833339D01*
X2502000Y832781D01*
X2502000Y832219D01*
X2501937Y831661D01*
X2501812Y831114D01*
X2501627Y830584D01*
X2501383Y830078D01*
X2501084Y829602D01*
X2500734Y829163D01*
X2500337Y828766D01*
X2499898Y828416D01*
X2499422Y828117D01*
X2498916Y827873D01*
X2498386Y827688D01*
X2497839Y827563D01*
X2497281Y827500D01*
X2496719Y827500D01*
X2478719Y827500D02*
X2478161Y827563D01*
X2477614Y827688D01*
X2477084Y827873D01*
X2476578Y828117D01*
X2476102Y828416D01*
X2475663Y828766D01*
X2475266Y829163D01*
X2474916Y829602D01*
X2474617Y830078D01*
X2474373Y830584D01*
X2474188Y831114D01*
X2474063Y831661D01*
X2474000Y832219D01*
X2474000Y832781D01*
X2474063Y833339D01*
X2474188Y833886D01*
X2474373Y834416D01*
X2474617Y834922D01*
X2474916Y835398D01*
X2475266Y835837D01*
X2475663Y836234D01*
X2476102Y836584D01*
X2476578Y836883D01*
X2477084Y837127D01*
X2477614Y837312D01*
X2478161Y837437D01*
X2478719Y837500D01*
X2479281Y837500D01*
X2479839Y837437D01*
X2480386Y837312D01*
X2480916Y837127D01*
X2481422Y836883D01*
X2481898Y836584D01*
X2482337Y836234D01*
X2482734Y835837D01*
X2483084Y835398D01*
X2483383Y834922D01*
X2483627Y834416D01*
X2483812Y833886D01*
X2483937Y833339D01*
X2484000Y832781D01*
X2484000Y832219D01*
X2483937Y831661D01*
X2483812Y831114D01*
X2483627Y830584D01*
X2483383Y830078D01*
X2483084Y829602D01*
X2482734Y829163D01*
X2482337Y828766D01*
X2481898Y828416D01*
X2481422Y828117D01*
X2480916Y827873D01*
X2480386Y827688D01*
X2479839Y827563D01*
X2479281Y827500D01*
X2478719Y827500D01*
X2451162Y986750D02*
X2452082Y986678D01*
X2452994Y986533D01*
X2453892Y986318D01*
X2454770Y986032D01*
X2455623Y985679D01*
X2456446Y985260D01*
X2457233Y984777D01*
X2457980Y984235D01*
X2458682Y983635D01*
X2459335Y982982D01*
X2459935Y982280D01*
X2460477Y981533D01*
X2460960Y980746D01*
X2461379Y979923D01*
X2461732Y979070D01*
X2462018Y978192D01*
X2462233Y977294D01*
X2462378Y976382D01*
X2462450Y975462D01*
X2462450Y974538D01*
X2462378Y973618D01*
X2462233Y972706D01*
X2462018Y971808D01*
X2461732Y970930D01*
X2461379Y970077D01*
X2460960Y969254D01*
X2460477Y968467D01*
X2459935Y967720D01*
X2459335Y967018D01*
X2458682Y966365D01*
X2457980Y965765D01*
X2457233Y965223D01*
X2456446Y964740D01*
X2455623Y964321D01*
X2454770Y963968D01*
X2453892Y963682D01*
X2452994Y963467D01*
X2452082Y963322D01*
X2451162Y963250D01*
X2450238Y963250D01*
X2449318Y963322D01*
X2448406Y963467D01*
X2447508Y963682D01*
X2446630Y963968D01*
X2445777Y964321D01*
X2444954Y964740D01*
X2444167Y965223D01*
X2443420Y965765D01*
X2442718Y966365D01*
X2442065Y967018D01*
X2441465Y967720D01*
X2440923Y968467D01*
X2440440Y969254D01*
X2440021Y970077D01*
X2439668Y970930D01*
X2439382Y971808D01*
X2439167Y972706D01*
X2439022Y973618D01*
X2438950Y974538D01*
X2438950Y975462D01*
X2439022Y976382D01*
X2439167Y977294D01*
X2439382Y978192D01*
X2439668Y979070D01*
X2440021Y979923D01*
X2440440Y980746D01*
X2440923Y981533D01*
X2441465Y982280D01*
X2442065Y982982D01*
X2442718Y983635D01*
X2443420Y984235D01*
X2444167Y984777D01*
X2444954Y985260D01*
X2445777Y985679D01*
X2446630Y986032D01*
X2447508Y986318D01*
X2448406Y986533D01*
X2449318Y986678D01*
X2450238Y986750D01*
X2451162Y986750D01*
X2451162Y1136750D02*
X2452082Y1136678D01*
X2452994Y1136533D01*
X2453892Y1136318D01*
X2454770Y1136032D01*
X2455623Y1135679D01*
X2456446Y1135260D01*
X2457233Y1134777D01*
X2457980Y1134235D01*
X2458682Y1133635D01*
X2459335Y1132982D01*
X2459935Y1132280D01*
X2460477Y1131533D01*
X2460960Y1130746D01*
X2461379Y1129923D01*
X2461732Y1129070D01*
X2462018Y1128192D01*
X2462233Y1127294D01*
X2462378Y1126382D01*
X2462450Y1125462D01*
X2462450Y1124538D01*
X2462378Y1123618D01*
X2462233Y1122706D01*
X2462018Y1121808D01*
X2461732Y1120930D01*
X2461379Y1120077D01*
X2460960Y1119254D01*
X2460477Y1118467D01*
X2459935Y1117720D01*
X2459335Y1117018D01*
X2458682Y1116365D01*
X2457980Y1115765D01*
X2457233Y1115223D01*
X2456446Y1114740D01*
X2455623Y1114321D01*
X2454770Y1113968D01*
X2453892Y1113682D01*
X2452994Y1113467D01*
X2452082Y1113322D01*
X2451162Y1113250D01*
X2450238Y1113250D01*
X2449318Y1113322D01*
X2448406Y1113467D01*
X2447508Y1113682D01*
X2446630Y1113968D01*
X2445777Y1114321D01*
X2444954Y1114740D01*
X2444167Y1115223D01*
X2443420Y1115765D01*
X2442718Y1116365D01*
X2442065Y1117018D01*
X2441465Y1117720D01*
X2440923Y1118467D01*
X2440440Y1119254D01*
X2440021Y1120077D01*
X2439668Y1120930D01*
X2439382Y1121808D01*
X2439167Y1122706D01*
X2439022Y1123618D01*
X2438950Y1124538D01*
X2438950Y1125462D01*
X2439022Y1126382D01*
X2439167Y1127294D01*
X2439382Y1128192D01*
X2439668Y1129070D01*
X2440021Y1129923D01*
X2440440Y1130746D01*
X2440923Y1131533D01*
X2441465Y1132280D01*
X2442065Y1132982D01*
X2442718Y1133635D01*
X2443420Y1134235D01*
X2444167Y1134777D01*
X2444954Y1135260D01*
X2445777Y1135679D01*
X2446630Y1136032D01*
X2447508Y1136318D01*
X2448406Y1136533D01*
X2449318Y1136678D01*
X2450238Y1136750D01*
X2451162Y1136750D01*
X2491200Y989000D02*
X2492198Y988929D01*
X2493187Y988786D01*
X2494165Y988574D01*
X2495124Y988292D01*
X2496061Y987943D01*
X2496971Y987527D01*
X2497848Y987048D01*
X2498690Y986507D01*
X2499490Y985908D01*
X2500246Y985253D01*
X2500953Y984546D01*
X2501608Y983790D01*
X2502207Y982990D01*
X2502748Y982148D01*
X2503227Y981271D01*
X2503643Y980361D01*
X2503992Y979424D01*
X2504274Y978465D01*
X2504486Y977487D01*
X2504629Y976498D01*
X2504700Y975500D01*
X2504700Y974500D01*
X2504629Y973503D01*
X2504486Y972513D01*
X2504274Y971536D01*
X2503992Y970576D01*
X2503643Y969639D01*
X2503227Y968729D01*
X2502748Y967852D01*
X2502207Y967010D01*
X2501608Y966210D01*
X2500953Y965454D01*
X2500246Y964747D01*
X2499490Y964092D01*
X2498690Y963493D01*
X2497848Y962952D01*
X2496971Y962473D01*
X2496061Y962057D01*
X2495124Y961708D01*
X2494165Y961426D01*
X2493187Y961214D01*
X2492198Y961071D01*
X2491200Y961000D01*
X2490200Y961000D01*
X2489203Y961071D01*
X2488213Y961214D01*
X2487236Y961426D01*
X2486276Y961708D01*
X2485339Y962057D01*
X2484429Y962473D01*
X2483552Y962952D01*
X2482710Y963493D01*
X2481910Y964092D01*
X2481154Y964747D01*
X2480447Y965454D01*
X2479792Y966210D01*
X2479193Y967010D01*
X2478652Y967852D01*
X2478173Y968729D01*
X2477757Y969639D01*
X2477408Y970576D01*
X2477126Y971536D01*
X2476914Y972513D01*
X2476771Y973503D01*
X2476700Y974500D01*
X2476700Y975500D01*
X2476771Y976498D01*
X2476914Y977487D01*
X2477126Y978465D01*
X2477408Y979424D01*
X2477757Y980361D01*
X2478173Y981271D01*
X2478652Y982148D01*
X2479193Y982990D01*
X2479792Y983790D01*
X2480447Y984546D01*
X2481154Y985253D01*
X2481910Y985908D01*
X2482710Y986507D01*
X2483552Y987048D01*
X2484429Y987527D01*
X2485339Y987943D01*
X2486276Y988292D01*
X2487236Y988574D01*
X2488213Y988786D01*
X2489203Y988929D01*
X2490200Y989000D01*
X2491200Y989000D01*
X2491200Y1139000D02*
X2492198Y1138929D01*
X2493187Y1138786D01*
X2494165Y1138574D01*
X2495124Y1138292D01*
X2496061Y1137943D01*
X2496971Y1137527D01*
X2497848Y1137048D01*
X2498690Y1136507D01*
X2499490Y1135908D01*
X2500246Y1135253D01*
X2500953Y1134546D01*
X2501608Y1133790D01*
X2502207Y1132990D01*
X2502748Y1132148D01*
X2503227Y1131271D01*
X2503643Y1130361D01*
X2503992Y1129424D01*
X2504274Y1128465D01*
X2504486Y1127487D01*
X2504629Y1126498D01*
X2504700Y1125500D01*
X2504700Y1124500D01*
X2504629Y1123503D01*
X2504486Y1122513D01*
X2504274Y1121536D01*
X2503992Y1120576D01*
X2503643Y1119639D01*
X2503227Y1118729D01*
X2502748Y1117852D01*
X2502207Y1117010D01*
X2501608Y1116210D01*
X2500953Y1115454D01*
X2500246Y1114747D01*
X2499490Y1114092D01*
X2498690Y1113493D01*
X2497848Y1112952D01*
X2496971Y1112473D01*
X2496061Y1112057D01*
X2495124Y1111708D01*
X2494165Y1111426D01*
X2493187Y1111214D01*
X2492198Y1111071D01*
X2491200Y1111000D01*
X2490200Y1111000D01*
X2489203Y1111071D01*
X2488213Y1111214D01*
X2487236Y1111426D01*
X2486276Y1111708D01*
X2485339Y1112057D01*
X2484429Y1112473D01*
X2483552Y1112952D01*
X2482710Y1113493D01*
X2481910Y1114092D01*
X2481154Y1114747D01*
X2480447Y1115454D01*
X2479792Y1116210D01*
X2479193Y1117010D01*
X2478652Y1117852D01*
X2478173Y1118729D01*
X2477757Y1119639D01*
X2477408Y1120576D01*
X2477126Y1121536D01*
X2476914Y1122513D01*
X2476771Y1123503D01*
X2476700Y1124500D01*
X2476700Y1125500D01*
X2476771Y1126498D01*
X2476914Y1127487D01*
X2477126Y1128465D01*
X2477408Y1129424D01*
X2477757Y1130361D01*
X2478173Y1131271D01*
X2478652Y1132148D01*
X2479193Y1132990D01*
X2479792Y1133790D01*
X2480447Y1134546D01*
X2481154Y1135253D01*
X2481910Y1135908D01*
X2482710Y1136507D01*
X2483552Y1137048D01*
X2484429Y1137527D01*
X2485339Y1137943D01*
X2486276Y1138292D01*
X2487236Y1138574D01*
X2488213Y1138786D01*
X2489203Y1138929D01*
X2490200Y1139000D01*
X2491200Y1139000D01*
X2496719Y162500D02*
X2496161Y162563D01*
X2495614Y162688D01*
X2495084Y162873D01*
X2494578Y163117D01*
X2494102Y163416D01*
X2493663Y163766D01*
X2493266Y164163D01*
X2492916Y164602D01*
X2492617Y165078D01*
X2492373Y165584D01*
X2492188Y166114D01*
X2492063Y166661D01*
X2492000Y167219D01*
X2492000Y167781D01*
X2492063Y168339D01*
X2492188Y168886D01*
X2492373Y169416D01*
X2492617Y169922D01*
X2492916Y170398D01*
X2493266Y170837D01*
X2493663Y171234D01*
X2494102Y171584D01*
X2494578Y171883D01*
X2495084Y172127D01*
X2495614Y172312D01*
X2496161Y172437D01*
X2496719Y172500D01*
X2497281Y172500D01*
X2497839Y172437D01*
X2498386Y172312D01*
X2498916Y172127D01*
X2499422Y171883D01*
X2499898Y171584D01*
X2500337Y171234D01*
X2500734Y170837D01*
X2501084Y170398D01*
X2501383Y169922D01*
X2501627Y169416D01*
X2501812Y168886D01*
X2501937Y168339D01*
X2502000Y167781D01*
X2502000Y167219D01*
X2501937Y166661D01*
X2501812Y166114D01*
X2501627Y165584D01*
X2501383Y165078D01*
X2501084Y164602D01*
X2500734Y164163D01*
X2500337Y163766D01*
X2499898Y163416D01*
X2499422Y163117D01*
X2498916Y162873D01*
X2498386Y162688D01*
X2497839Y162563D01*
X2497281Y162500D01*
X2496719Y162500D01*
X2478719Y162500D02*
X2478161Y162563D01*
X2477614Y162688D01*
X2477084Y162873D01*
X2476578Y163117D01*
X2476102Y163416D01*
X2475663Y163766D01*
X2475266Y164163D01*
X2474916Y164602D01*
X2474617Y165078D01*
X2474373Y165584D01*
X2474188Y166114D01*
X2474063Y166661D01*
X2474000Y167219D01*
X2474000Y167781D01*
X2474063Y168339D01*
X2474188Y168886D01*
X2474373Y169416D01*
X2474617Y169922D01*
X2474916Y170398D01*
X2475266Y170837D01*
X2475663Y171234D01*
X2476102Y171584D01*
X2476578Y171883D01*
X2477084Y172127D01*
X2477614Y172312D01*
X2478161Y172437D01*
X2478719Y172500D01*
X2479281Y172500D01*
X2479839Y172437D01*
X2480386Y172312D01*
X2480916Y172127D01*
X2481422Y171883D01*
X2481898Y171584D01*
X2482337Y171234D01*
X2482734Y170837D01*
X2483084Y170398D01*
X2483383Y169922D01*
X2483627Y169416D01*
X2483812Y168886D01*
X2483937Y168339D01*
X2484000Y167781D01*
X2484000Y167219D01*
X2483937Y166661D01*
X2483812Y166114D01*
X2483627Y165584D01*
X2483383Y165078D01*
X2483084Y164602D01*
X2482734Y164163D01*
X2482337Y163766D01*
X2481898Y163416D01*
X2481422Y163117D01*
X2480916Y162873D01*
X2480386Y162688D01*
X2479839Y162563D01*
X2479281Y162500D01*
X2478719Y162500D01*
X2496719Y327500D02*
X2496161Y327563D01*
X2495614Y327688D01*
X2495084Y327873D01*
X2494578Y328117D01*
X2494102Y328416D01*
X2493663Y328766D01*
X2493266Y329163D01*
X2492916Y329602D01*
X2492617Y330078D01*
X2492373Y330584D01*
X2492188Y331114D01*
X2492063Y331661D01*
X2492000Y332219D01*
X2492000Y332781D01*
X2492063Y333339D01*
X2492188Y333886D01*
X2492373Y334416D01*
X2492617Y334922D01*
X2492916Y335398D01*
X2493266Y335837D01*
X2493663Y336234D01*
X2494102Y336584D01*
X2494578Y336883D01*
X2495084Y337127D01*
X2495614Y337312D01*
X2496161Y337437D01*
X2496719Y337500D01*
X2497281Y337500D01*
X2497839Y337437D01*
X2498386Y337312D01*
X2498916Y337127D01*
X2499422Y336883D01*
X2499898Y336584D01*
X2500337Y336234D01*
X2500734Y335837D01*
X2501084Y335398D01*
X2501383Y334922D01*
X2501627Y334416D01*
X2501812Y333886D01*
X2501937Y333339D01*
X2502000Y332781D01*
X2502000Y332219D01*
X2501937Y331661D01*
X2501812Y331114D01*
X2501627Y330584D01*
X2501383Y330078D01*
X2501084Y329602D01*
X2500734Y329163D01*
X2500337Y328766D01*
X2499898Y328416D01*
X2499422Y328117D01*
X2498916Y327873D01*
X2498386Y327688D01*
X2497839Y327563D01*
X2497281Y327500D01*
X2496719Y327500D01*
X2478719Y327500D02*
X2478161Y327563D01*
X2477614Y327688D01*
X2477084Y327873D01*
X2476578Y328117D01*
X2476102Y328416D01*
X2475663Y328766D01*
X2475266Y329163D01*
X2474916Y329602D01*
X2474617Y330078D01*
X2474373Y330584D01*
X2474188Y331114D01*
X2474063Y331661D01*
X2474000Y332219D01*
X2474000Y332781D01*
X2474063Y333339D01*
X2474188Y333886D01*
X2474373Y334416D01*
X2474617Y334922D01*
X2474916Y335398D01*
X2475266Y335837D01*
X2475663Y336234D01*
X2476102Y336584D01*
X2476578Y336883D01*
X2477084Y337127D01*
X2477614Y337312D01*
X2478161Y337437D01*
X2478719Y337500D01*
X2479281Y337500D01*
X2479839Y337437D01*
X2480386Y337312D01*
X2480916Y337127D01*
X2481422Y336883D01*
X2481898Y336584D01*
X2482337Y336234D01*
X2482734Y335837D01*
X2483084Y335398D01*
X2483383Y334922D01*
X2483627Y334416D01*
X2483812Y333886D01*
X2483937Y333339D01*
X2484000Y332781D01*
X2484000Y332219D01*
X2483937Y331661D01*
X2483812Y331114D01*
X2483627Y330584D01*
X2483383Y330078D01*
X2483084Y329602D01*
X2482734Y329163D01*
X2482337Y328766D01*
X2481898Y328416D01*
X2481422Y328117D01*
X2480916Y327873D01*
X2480386Y327688D01*
X2479839Y327563D01*
X2479281Y327500D01*
X2478719Y327500D01*
X2451162Y2336750D02*
X2452082Y2336678D01*
X2452994Y2336533D01*
X2453892Y2336318D01*
X2454770Y2336032D01*
X2455623Y2335679D01*
X2456446Y2335260D01*
X2457233Y2334777D01*
X2457980Y2334235D01*
X2458682Y2333635D01*
X2459335Y2332982D01*
X2459935Y2332280D01*
X2460477Y2331533D01*
X2460960Y2330746D01*
X2461379Y2329923D01*
X2461732Y2329070D01*
X2462018Y2328192D01*
X2462233Y2327294D01*
X2462378Y2326382D01*
X2462450Y2325462D01*
X2462450Y2324538D01*
X2462378Y2323618D01*
X2462233Y2322706D01*
X2462018Y2321808D01*
X2461732Y2320930D01*
X2461379Y2320077D01*
X2460960Y2319254D01*
X2460477Y2318467D01*
X2459935Y2317720D01*
X2459335Y2317018D01*
X2458682Y2316365D01*
X2457980Y2315765D01*
X2457233Y2315223D01*
X2456446Y2314740D01*
X2455623Y2314321D01*
X2454770Y2313968D01*
X2453892Y2313682D01*
X2452994Y2313467D01*
X2452082Y2313322D01*
X2451162Y2313250D01*
X2450238Y2313250D01*
X2449318Y2313322D01*
X2448406Y2313467D01*
X2447508Y2313682D01*
X2446630Y2313968D01*
X2445777Y2314321D01*
X2444954Y2314740D01*
X2444167Y2315223D01*
X2443420Y2315765D01*
X2442718Y2316365D01*
X2442065Y2317018D01*
X2441465Y2317720D01*
X2440923Y2318467D01*
X2440440Y2319254D01*
X2440021Y2320077D01*
X2439668Y2320930D01*
X2439382Y2321808D01*
X2439167Y2322706D01*
X2439022Y2323618D01*
X2438950Y2324538D01*
X2438950Y2325462D01*
X2439022Y2326382D01*
X2439167Y2327294D01*
X2439382Y2328192D01*
X2439668Y2329070D01*
X2440021Y2329923D01*
X2440440Y2330746D01*
X2440923Y2331533D01*
X2441465Y2332280D01*
X2442065Y2332982D01*
X2442718Y2333635D01*
X2443420Y2334235D01*
X2444167Y2334777D01*
X2444954Y2335260D01*
X2445777Y2335679D01*
X2446630Y2336032D01*
X2447508Y2336318D01*
X2448406Y2336533D01*
X2449318Y2336678D01*
X2450238Y2336750D01*
X2451162Y2336750D01*
X2451162Y2486750D02*
X2452082Y2486678D01*
X2452994Y2486533D01*
X2453892Y2486318D01*
X2454770Y2486032D01*
X2455623Y2485679D01*
X2456446Y2485260D01*
X2457233Y2484777D01*
X2457980Y2484235D01*
X2458682Y2483635D01*
X2459335Y2482982D01*
X2459935Y2482280D01*
X2460477Y2481533D01*
X2460960Y2480746D01*
X2461379Y2479923D01*
X2461732Y2479070D01*
X2462018Y2478192D01*
X2462233Y2477294D01*
X2462378Y2476382D01*
X2462450Y2475462D01*
X2462450Y2474538D01*
X2462378Y2473618D01*
X2462233Y2472706D01*
X2462018Y2471808D01*
X2461732Y2470930D01*
X2461379Y2470077D01*
X2460960Y2469254D01*
X2460477Y2468467D01*
X2459935Y2467720D01*
X2459335Y2467018D01*
X2458682Y2466365D01*
X2457980Y2465765D01*
X2457233Y2465223D01*
X2456446Y2464740D01*
X2455623Y2464321D01*
X2454770Y2463968D01*
X2453892Y2463682D01*
X2452994Y2463467D01*
X2452082Y2463322D01*
X2451162Y2463250D01*
X2450238Y2463250D01*
X2449318Y2463322D01*
X2448406Y2463467D01*
X2447508Y2463682D01*
X2446630Y2463968D01*
X2445777Y2464321D01*
X2444954Y2464740D01*
X2444167Y2465223D01*
X2443420Y2465765D01*
X2442718Y2466365D01*
X2442065Y2467018D01*
X2441465Y2467720D01*
X2440923Y2468467D01*
X2440440Y2469254D01*
X2440021Y2470077D01*
X2439668Y2470930D01*
X2439382Y2471808D01*
X2439167Y2472706D01*
X2439022Y2473618D01*
X2438950Y2474538D01*
X2438950Y2475462D01*
X2439022Y2476382D01*
X2439167Y2477294D01*
X2439382Y2478192D01*
X2439668Y2479070D01*
X2440021Y2479923D01*
X2440440Y2480746D01*
X2440923Y2481533D01*
X2441465Y2482280D01*
X2442065Y2482982D01*
X2442718Y2483635D01*
X2443420Y2484235D01*
X2444167Y2484777D01*
X2444954Y2485260D01*
X2445777Y2485679D01*
X2446630Y2486032D01*
X2447508Y2486318D01*
X2448406Y2486533D01*
X2449318Y2486678D01*
X2450238Y2486750D01*
X2451162Y2486750D01*
X2491200Y2339000D02*
X2492198Y2338929D01*
X2493187Y2338786D01*
X2494165Y2338574D01*
X2495124Y2338292D01*
X2496061Y2337943D01*
X2496971Y2337527D01*
X2497848Y2337048D01*
X2498690Y2336507D01*
X2499490Y2335908D01*
X2500246Y2335253D01*
X2500953Y2334546D01*
X2501608Y2333790D01*
X2502207Y2332990D01*
X2502748Y2332148D01*
X2503227Y2331271D01*
X2503643Y2330361D01*
X2503992Y2329424D01*
X2504274Y2328465D01*
X2504486Y2327487D01*
X2504629Y2326498D01*
X2504700Y2325500D01*
X2504700Y2324500D01*
X2504629Y2323503D01*
X2504486Y2322513D01*
X2504274Y2321536D01*
X2503992Y2320576D01*
X2503643Y2319639D01*
X2503227Y2318729D01*
X2502748Y2317852D01*
X2502207Y2317010D01*
X2501608Y2316210D01*
X2500953Y2315454D01*
X2500246Y2314747D01*
X2499490Y2314092D01*
X2498690Y2313493D01*
X2497848Y2312952D01*
X2496971Y2312473D01*
X2496061Y2312057D01*
X2495124Y2311708D01*
X2494165Y2311426D01*
X2493187Y2311214D01*
X2492198Y2311071D01*
X2491200Y2311000D01*
X2490200Y2311000D01*
X2489203Y2311071D01*
X2488213Y2311214D01*
X2487236Y2311426D01*
X2486276Y2311708D01*
X2485339Y2312057D01*
X2484429Y2312473D01*
X2483552Y2312952D01*
X2482710Y2313493D01*
X2481910Y2314092D01*
X2481154Y2314747D01*
X2480447Y2315454D01*
X2479792Y2316210D01*
X2479193Y2317010D01*
X2478652Y2317852D01*
X2478173Y2318729D01*
X2477757Y2319639D01*
X2477408Y2320576D01*
X2477126Y2321536D01*
X2476914Y2322513D01*
X2476771Y2323503D01*
X2476700Y2324500D01*
X2476700Y2325500D01*
X2476771Y2326498D01*
X2476914Y2327487D01*
X2477126Y2328465D01*
X2477408Y2329424D01*
X2477757Y2330361D01*
X2478173Y2331271D01*
X2478652Y2332148D01*
X2479193Y2332990D01*
X2479792Y2333790D01*
X2480447Y2334546D01*
X2481154Y2335253D01*
X2481910Y2335908D01*
X2482710Y2336507D01*
X2483552Y2337048D01*
X2484429Y2337527D01*
X2485339Y2337943D01*
X2486276Y2338292D01*
X2487236Y2338574D01*
X2488213Y2338786D01*
X2489203Y2338929D01*
X2490200Y2339000D01*
X2491200Y2339000D01*
X2491200Y2489000D02*
X2492198Y2488929D01*
X2493187Y2488786D01*
X2494165Y2488574D01*
X2495124Y2488292D01*
X2496061Y2487943D01*
X2496971Y2487527D01*
X2497848Y2487048D01*
X2498690Y2486507D01*
X2499490Y2485908D01*
X2500246Y2485253D01*
X2500953Y2484546D01*
X2501608Y2483790D01*
X2502207Y2482990D01*
X2502748Y2482148D01*
X2503227Y2481271D01*
X2503643Y2480361D01*
X2503992Y2479424D01*
X2504274Y2478465D01*
X2504486Y2477487D01*
X2504629Y2476498D01*
X2504700Y2475500D01*
X2504700Y2474500D01*
X2504629Y2473503D01*
X2504486Y2472513D01*
X2504274Y2471536D01*
X2503992Y2470576D01*
X2503643Y2469639D01*
X2503227Y2468729D01*
X2502748Y2467852D01*
X2502207Y2467010D01*
X2501608Y2466210D01*
X2500953Y2465454D01*
X2500246Y2464747D01*
X2499490Y2464092D01*
X2498690Y2463493D01*
X2497848Y2462952D01*
X2496971Y2462473D01*
X2496061Y2462057D01*
X2495124Y2461708D01*
X2494165Y2461426D01*
X2493187Y2461214D01*
X2492198Y2461071D01*
X2491200Y2461000D01*
X2490200Y2461000D01*
X2489203Y2461071D01*
X2488213Y2461214D01*
X2487236Y2461426D01*
X2486276Y2461708D01*
X2485339Y2462057D01*
X2484429Y2462473D01*
X2483552Y2462952D01*
X2482710Y2463493D01*
X2481910Y2464092D01*
X2481154Y2464747D01*
X2480447Y2465454D01*
X2479792Y2466210D01*
X2479193Y2467010D01*
X2478652Y2467852D01*
X2478173Y2468729D01*
X2477757Y2469639D01*
X2477408Y2470576D01*
X2477126Y2471536D01*
X2476914Y2472513D01*
X2476771Y2473503D01*
X2476700Y2474500D01*
X2476700Y2475500D01*
X2476771Y2476498D01*
X2476914Y2477487D01*
X2477126Y2478465D01*
X2477408Y2479424D01*
X2477757Y2480361D01*
X2478173Y2481271D01*
X2478652Y2482148D01*
X2479193Y2482990D01*
X2479792Y2483790D01*
X2480447Y2484546D01*
X2481154Y2485253D01*
X2481910Y2485908D01*
X2482710Y2486507D01*
X2483552Y2487048D01*
X2484429Y2487527D01*
X2485339Y2487943D01*
X2486276Y2488292D01*
X2487236Y2488574D01*
X2488213Y2488786D01*
X2489203Y2488929D01*
X2490200Y2489000D01*
X2491200Y2489000D01*
X2496719Y412500D02*
X2496161Y412563D01*
X2495614Y412688D01*
X2495084Y412873D01*
X2494578Y413117D01*
X2494102Y413416D01*
X2493663Y413766D01*
X2493266Y414163D01*
X2492916Y414602D01*
X2492617Y415078D01*
X2492373Y415584D01*
X2492188Y416114D01*
X2492063Y416661D01*
X2492000Y417219D01*
X2492000Y417781D01*
X2492063Y418339D01*
X2492188Y418886D01*
X2492373Y419416D01*
X2492617Y419922D01*
X2492916Y420398D01*
X2493266Y420837D01*
X2493663Y421234D01*
X2494102Y421584D01*
X2494578Y421883D01*
X2495084Y422127D01*
X2495614Y422312D01*
X2496161Y422437D01*
X2496719Y422500D01*
X2497281Y422500D01*
X2497839Y422437D01*
X2498386Y422312D01*
X2498916Y422127D01*
X2499422Y421883D01*
X2499898Y421584D01*
X2500337Y421234D01*
X2500734Y420837D01*
X2501084Y420398D01*
X2501383Y419922D01*
X2501627Y419416D01*
X2501812Y418886D01*
X2501937Y418339D01*
X2502000Y417781D01*
X2502000Y417219D01*
X2501937Y416661D01*
X2501812Y416114D01*
X2501627Y415584D01*
X2501383Y415078D01*
X2501084Y414602D01*
X2500734Y414163D01*
X2500337Y413766D01*
X2499898Y413416D01*
X2499422Y413117D01*
X2498916Y412873D01*
X2498386Y412688D01*
X2497839Y412563D01*
X2497281Y412500D01*
X2496719Y412500D01*
X2478719Y412500D02*
X2478161Y412563D01*
X2477614Y412688D01*
X2477084Y412873D01*
X2476578Y413117D01*
X2476102Y413416D01*
X2475663Y413766D01*
X2475266Y414163D01*
X2474916Y414602D01*
X2474617Y415078D01*
X2474373Y415584D01*
X2474188Y416114D01*
X2474063Y416661D01*
X2474000Y417219D01*
X2474000Y417781D01*
X2474063Y418339D01*
X2474188Y418886D01*
X2474373Y419416D01*
X2474617Y419922D01*
X2474916Y420398D01*
X2475266Y420837D01*
X2475663Y421234D01*
X2476102Y421584D01*
X2476578Y421883D01*
X2477084Y422127D01*
X2477614Y422312D01*
X2478161Y422437D01*
X2478719Y422500D01*
X2479281Y422500D01*
X2479839Y422437D01*
X2480386Y422312D01*
X2480916Y422127D01*
X2481422Y421883D01*
X2481898Y421584D01*
X2482337Y421234D01*
X2482734Y420837D01*
X2483084Y420398D01*
X2483383Y419922D01*
X2483627Y419416D01*
X2483812Y418886D01*
X2483937Y418339D01*
X2484000Y417781D01*
X2484000Y417219D01*
X2483937Y416661D01*
X2483812Y416114D01*
X2483627Y415584D01*
X2483383Y415078D01*
X2483084Y414602D01*
X2482734Y414163D01*
X2482337Y413766D01*
X2481898Y413416D01*
X2481422Y413117D01*
X2480916Y412873D01*
X2480386Y412688D01*
X2479839Y412563D01*
X2479281Y412500D01*
X2478719Y412500D01*
X2496719Y577500D02*
X2496161Y577563D01*
X2495614Y577688D01*
X2495084Y577873D01*
X2494578Y578117D01*
X2494102Y578416D01*
X2493663Y578766D01*
X2493266Y579163D01*
X2492916Y579602D01*
X2492617Y580078D01*
X2492373Y580584D01*
X2492188Y581114D01*
X2492063Y581661D01*
X2492000Y582219D01*
X2492000Y582781D01*
X2492063Y583339D01*
X2492188Y583886D01*
X2492373Y584416D01*
X2492617Y584922D01*
X2492916Y585398D01*
X2493266Y585837D01*
X2493663Y586234D01*
X2494102Y586584D01*
X2494578Y586883D01*
X2495084Y587127D01*
X2495614Y587312D01*
X2496161Y587437D01*
X2496719Y587500D01*
X2497281Y587500D01*
X2497839Y587437D01*
X2498386Y587312D01*
X2498916Y587127D01*
X2499422Y586883D01*
X2499898Y586584D01*
X2500337Y586234D01*
X2500734Y585837D01*
X2501084Y585398D01*
X2501383Y584922D01*
X2501627Y584416D01*
X2501812Y583886D01*
X2501937Y583339D01*
X2502000Y582781D01*
X2502000Y582219D01*
X2501937Y581661D01*
X2501812Y581114D01*
X2501627Y580584D01*
X2501383Y580078D01*
X2501084Y579602D01*
X2500734Y579163D01*
X2500337Y578766D01*
X2499898Y578416D01*
X2499422Y578117D01*
X2498916Y577873D01*
X2498386Y577688D01*
X2497839Y577563D01*
X2497281Y577500D01*
X2496719Y577500D01*
X2478719Y577500D02*
X2478161Y577563D01*
X2477614Y577688D01*
X2477084Y577873D01*
X2476578Y578117D01*
X2476102Y578416D01*
X2475663Y578766D01*
X2475266Y579163D01*
X2474916Y579602D01*
X2474617Y580078D01*
X2474373Y580584D01*
X2474188Y581114D01*
X2474063Y581661D01*
X2474000Y582219D01*
X2474000Y582781D01*
X2474063Y583339D01*
X2474188Y583886D01*
X2474373Y584416D01*
X2474617Y584922D01*
X2474916Y585398D01*
X2475266Y585837D01*
X2475663Y586234D01*
X2476102Y586584D01*
X2476578Y586883D01*
X2477084Y587127D01*
X2477614Y587312D01*
X2478161Y587437D01*
X2478719Y587500D01*
X2479281Y587500D01*
X2479839Y587437D01*
X2480386Y587312D01*
X2480916Y587127D01*
X2481422Y586883D01*
X2481898Y586584D01*
X2482337Y586234D01*
X2482734Y585837D01*
X2483084Y585398D01*
X2483383Y584922D01*
X2483627Y584416D01*
X2483812Y583886D01*
X2483937Y583339D01*
X2484000Y582781D01*
X2484000Y582219D01*
X2483937Y581661D01*
X2483812Y581114D01*
X2483627Y580584D01*
X2483383Y580078D01*
X2483084Y579602D01*
X2482734Y579163D01*
X2482337Y578766D01*
X2481898Y578416D01*
X2481422Y578117D01*
X2480916Y577873D01*
X2480386Y577688D01*
X2479839Y577563D01*
X2479281Y577500D01*
X2478719Y577500D01*
X2451162Y2111750D02*
X2452082Y2111678D01*
X2452994Y2111533D01*
X2453892Y2111318D01*
X2454770Y2111032D01*
X2455623Y2110679D01*
X2456446Y2110260D01*
X2457233Y2109777D01*
X2457980Y2109235D01*
X2458682Y2108635D01*
X2459335Y2107982D01*
X2459935Y2107280D01*
X2460477Y2106533D01*
X2460960Y2105746D01*
X2461379Y2104923D01*
X2461732Y2104070D01*
X2462018Y2103192D01*
X2462233Y2102294D01*
X2462378Y2101382D01*
X2462450Y2100462D01*
X2462450Y2099538D01*
X2462378Y2098618D01*
X2462233Y2097706D01*
X2462018Y2096808D01*
X2461732Y2095930D01*
X2461379Y2095077D01*
X2460960Y2094254D01*
X2460477Y2093467D01*
X2459935Y2092720D01*
X2459335Y2092018D01*
X2458682Y2091365D01*
X2457980Y2090765D01*
X2457233Y2090223D01*
X2456446Y2089740D01*
X2455623Y2089321D01*
X2454770Y2088968D01*
X2453892Y2088682D01*
X2452994Y2088467D01*
X2452082Y2088322D01*
X2451162Y2088250D01*
X2450238Y2088250D01*
X2449318Y2088322D01*
X2448406Y2088467D01*
X2447508Y2088682D01*
X2446630Y2088968D01*
X2445777Y2089321D01*
X2444954Y2089740D01*
X2444167Y2090223D01*
X2443420Y2090765D01*
X2442718Y2091365D01*
X2442065Y2092018D01*
X2441465Y2092720D01*
X2440923Y2093467D01*
X2440440Y2094254D01*
X2440021Y2095077D01*
X2439668Y2095930D01*
X2439382Y2096808D01*
X2439167Y2097706D01*
X2439022Y2098618D01*
X2438950Y2099538D01*
X2438950Y2100462D01*
X2439022Y2101382D01*
X2439167Y2102294D01*
X2439382Y2103192D01*
X2439668Y2104070D01*
X2440021Y2104923D01*
X2440440Y2105746D01*
X2440923Y2106533D01*
X2441465Y2107280D01*
X2442065Y2107982D01*
X2442718Y2108635D01*
X2443420Y2109235D01*
X2444167Y2109777D01*
X2444954Y2110260D01*
X2445777Y2110679D01*
X2446630Y2111032D01*
X2447508Y2111318D01*
X2448406Y2111533D01*
X2449318Y2111678D01*
X2450238Y2111750D01*
X2451162Y2111750D01*
X2451162Y2261750D02*
X2452082Y2261678D01*
X2452994Y2261533D01*
X2453892Y2261318D01*
X2454770Y2261032D01*
X2455623Y2260679D01*
X2456446Y2260260D01*
X2457233Y2259777D01*
X2457980Y2259235D01*
X2458682Y2258635D01*
X2459335Y2257982D01*
X2459935Y2257280D01*
X2460477Y2256533D01*
X2460960Y2255746D01*
X2461379Y2254923D01*
X2461732Y2254070D01*
X2462018Y2253192D01*
X2462233Y2252294D01*
X2462378Y2251382D01*
X2462450Y2250462D01*
X2462450Y2249538D01*
X2462378Y2248618D01*
X2462233Y2247706D01*
X2462018Y2246808D01*
X2461732Y2245930D01*
X2461379Y2245077D01*
X2460960Y2244254D01*
X2460477Y2243467D01*
X2459935Y2242720D01*
X2459335Y2242018D01*
X2458682Y2241365D01*
X2457980Y2240765D01*
X2457233Y2240223D01*
X2456446Y2239740D01*
X2455623Y2239321D01*
X2454770Y2238968D01*
X2453892Y2238682D01*
X2452994Y2238467D01*
X2452082Y2238322D01*
X2451162Y2238250D01*
X2450238Y2238250D01*
X2449318Y2238322D01*
X2448406Y2238467D01*
X2447508Y2238682D01*
X2446630Y2238968D01*
X2445777Y2239321D01*
X2444954Y2239740D01*
X2444167Y2240223D01*
X2443420Y2240765D01*
X2442718Y2241365D01*
X2442065Y2242018D01*
X2441465Y2242720D01*
X2440923Y2243467D01*
X2440440Y2244254D01*
X2440021Y2245077D01*
X2439668Y2245930D01*
X2439382Y2246808D01*
X2439167Y2247706D01*
X2439022Y2248618D01*
X2438950Y2249538D01*
X2438950Y2250462D01*
X2439022Y2251382D01*
X2439167Y2252294D01*
X2439382Y2253192D01*
X2439668Y2254070D01*
X2440021Y2254923D01*
X2440440Y2255746D01*
X2440923Y2256533D01*
X2441465Y2257280D01*
X2442065Y2257982D01*
X2442718Y2258635D01*
X2443420Y2259235D01*
X2444167Y2259777D01*
X2444954Y2260260D01*
X2445777Y2260679D01*
X2446630Y2261032D01*
X2447508Y2261318D01*
X2448406Y2261533D01*
X2449318Y2261678D01*
X2450238Y2261750D01*
X2451162Y2261750D01*
X2491200Y2114000D02*
X2492198Y2113929D01*
X2493187Y2113786D01*
X2494165Y2113574D01*
X2495124Y2113292D01*
X2496061Y2112943D01*
X2496971Y2112527D01*
X2497848Y2112048D01*
X2498690Y2111507D01*
X2499490Y2110908D01*
X2500246Y2110253D01*
X2500953Y2109546D01*
X2501608Y2108790D01*
X2502207Y2107990D01*
X2502748Y2107148D01*
X2503227Y2106271D01*
X2503643Y2105361D01*
X2503992Y2104424D01*
X2504274Y2103465D01*
X2504486Y2102487D01*
X2504629Y2101498D01*
X2504700Y2100500D01*
X2504700Y2099500D01*
X2504629Y2098503D01*
X2504486Y2097513D01*
X2504274Y2096536D01*
X2503992Y2095576D01*
X2503643Y2094639D01*
X2503227Y2093729D01*
X2502748Y2092852D01*
X2502207Y2092010D01*
X2501608Y2091210D01*
X2500953Y2090454D01*
X2500246Y2089747D01*
X2499490Y2089092D01*
X2498690Y2088493D01*
X2497848Y2087952D01*
X2496971Y2087473D01*
X2496061Y2087057D01*
X2495124Y2086708D01*
X2494165Y2086426D01*
X2493187Y2086214D01*
X2492198Y2086071D01*
X2491200Y2086000D01*
X2490200Y2086000D01*
X2489203Y2086071D01*
X2488213Y2086214D01*
X2487236Y2086426D01*
X2486276Y2086708D01*
X2485339Y2087057D01*
X2484429Y2087473D01*
X2483552Y2087952D01*
X2482710Y2088493D01*
X2481910Y2089092D01*
X2481154Y2089747D01*
X2480447Y2090454D01*
X2479792Y2091210D01*
X2479193Y2092010D01*
X2478652Y2092852D01*
X2478173Y2093729D01*
X2477757Y2094639D01*
X2477408Y2095576D01*
X2477126Y2096536D01*
X2476914Y2097513D01*
X2476771Y2098503D01*
X2476700Y2099500D01*
X2476700Y2100500D01*
X2476771Y2101498D01*
X2476914Y2102487D01*
X2477126Y2103465D01*
X2477408Y2104424D01*
X2477757Y2105361D01*
X2478173Y2106271D01*
X2478652Y2107148D01*
X2479193Y2107990D01*
X2479792Y2108790D01*
X2480447Y2109546D01*
X2481154Y2110253D01*
X2481910Y2110908D01*
X2482710Y2111507D01*
X2483552Y2112048D01*
X2484429Y2112527D01*
X2485339Y2112943D01*
X2486276Y2113292D01*
X2487236Y2113574D01*
X2488213Y2113786D01*
X2489203Y2113929D01*
X2490200Y2114000D01*
X2491200Y2114000D01*
X2491200Y2264000D02*
X2492198Y2263929D01*
X2493187Y2263786D01*
X2494165Y2263574D01*
X2495124Y2263292D01*
X2496061Y2262943D01*
X2496971Y2262527D01*
X2497848Y2262048D01*
X2498690Y2261507D01*
X2499490Y2260908D01*
X2500246Y2260253D01*
X2500953Y2259546D01*
X2501608Y2258790D01*
X2502207Y2257990D01*
X2502748Y2257148D01*
X2503227Y2256271D01*
X2503643Y2255361D01*
X2503992Y2254424D01*
X2504274Y2253465D01*
X2504486Y2252487D01*
X2504629Y2251498D01*
X2504700Y2250500D01*
X2504700Y2249500D01*
X2504629Y2248503D01*
X2504486Y2247513D01*
X2504274Y2246536D01*
X2503992Y2245576D01*
X2503643Y2244639D01*
X2503227Y2243729D01*
X2502748Y2242852D01*
X2502207Y2242010D01*
X2501608Y2241210D01*
X2500953Y2240454D01*
X2500246Y2239747D01*
X2499490Y2239092D01*
X2498690Y2238493D01*
X2497848Y2237952D01*
X2496971Y2237473D01*
X2496061Y2237057D01*
X2495124Y2236708D01*
X2494165Y2236426D01*
X2493187Y2236214D01*
X2492198Y2236071D01*
X2491200Y2236000D01*
X2490200Y2236000D01*
X2489203Y2236071D01*
X2488213Y2236214D01*
X2487236Y2236426D01*
X2486276Y2236708D01*
X2485339Y2237057D01*
X2484429Y2237473D01*
X2483552Y2237952D01*
X2482710Y2238493D01*
X2481910Y2239092D01*
X2481154Y2239747D01*
X2480447Y2240454D01*
X2479792Y2241210D01*
X2479193Y2242010D01*
X2478652Y2242852D01*
X2478173Y2243729D01*
X2477757Y2244639D01*
X2477408Y2245576D01*
X2477126Y2246536D01*
X2476914Y2247513D01*
X2476771Y2248503D01*
X2476700Y2249500D01*
X2476700Y2250500D01*
X2476771Y2251498D01*
X2476914Y2252487D01*
X2477126Y2253465D01*
X2477408Y2254424D01*
X2477757Y2255361D01*
X2478173Y2256271D01*
X2478652Y2257148D01*
X2479193Y2257990D01*
X2479792Y2258790D01*
X2480447Y2259546D01*
X2481154Y2260253D01*
X2481910Y2260908D01*
X2482710Y2261507D01*
X2483552Y2262048D01*
X2484429Y2262527D01*
X2485339Y2262943D01*
X2486276Y2263292D01*
X2487236Y2263574D01*
X2488213Y2263786D01*
X2489203Y2263929D01*
X2490200Y2264000D01*
X2491200Y2264000D01*
X2451162Y1211750D02*
X2452082Y1211678D01*
X2452994Y1211533D01*
X2453892Y1211318D01*
X2454770Y1211032D01*
X2455623Y1210679D01*
X2456446Y1210260D01*
X2457233Y1209777D01*
X2457980Y1209235D01*
X2458682Y1208635D01*
X2459335Y1207982D01*
X2459935Y1207280D01*
X2460477Y1206533D01*
X2460960Y1205746D01*
X2461379Y1204923D01*
X2461732Y1204070D01*
X2462018Y1203192D01*
X2462233Y1202294D01*
X2462378Y1201382D01*
X2462450Y1200462D01*
X2462450Y1199538D01*
X2462378Y1198618D01*
X2462233Y1197706D01*
X2462018Y1196808D01*
X2461732Y1195930D01*
X2461379Y1195077D01*
X2460960Y1194254D01*
X2460477Y1193467D01*
X2459935Y1192720D01*
X2459335Y1192018D01*
X2458682Y1191365D01*
X2457980Y1190765D01*
X2457233Y1190223D01*
X2456446Y1189740D01*
X2455623Y1189321D01*
X2454770Y1188968D01*
X2453892Y1188682D01*
X2452994Y1188467D01*
X2452082Y1188322D01*
X2451162Y1188250D01*
X2450238Y1188250D01*
X2449318Y1188322D01*
X2448406Y1188467D01*
X2447508Y1188682D01*
X2446630Y1188968D01*
X2445777Y1189321D01*
X2444954Y1189740D01*
X2444167Y1190223D01*
X2443420Y1190765D01*
X2442718Y1191365D01*
X2442065Y1192018D01*
X2441465Y1192720D01*
X2440923Y1193467D01*
X2440440Y1194254D01*
X2440021Y1195077D01*
X2439668Y1195930D01*
X2439382Y1196808D01*
X2439167Y1197706D01*
X2439022Y1198618D01*
X2438950Y1199538D01*
X2438950Y1200462D01*
X2439022Y1201382D01*
X2439167Y1202294D01*
X2439382Y1203192D01*
X2439668Y1204070D01*
X2440021Y1204923D01*
X2440440Y1205746D01*
X2440923Y1206533D01*
X2441465Y1207280D01*
X2442065Y1207982D01*
X2442718Y1208635D01*
X2443420Y1209235D01*
X2444167Y1209777D01*
X2444954Y1210260D01*
X2445777Y1210679D01*
X2446630Y1211032D01*
X2447508Y1211318D01*
X2448406Y1211533D01*
X2449318Y1211678D01*
X2450238Y1211750D01*
X2451162Y1211750D01*
X2451162Y1361750D02*
X2452082Y1361678D01*
X2452994Y1361533D01*
X2453892Y1361318D01*
X2454770Y1361032D01*
X2455623Y1360679D01*
X2456446Y1360260D01*
X2457233Y1359777D01*
X2457980Y1359235D01*
X2458682Y1358635D01*
X2459335Y1357982D01*
X2459935Y1357280D01*
X2460477Y1356533D01*
X2460960Y1355746D01*
X2461379Y1354923D01*
X2461732Y1354070D01*
X2462018Y1353192D01*
X2462233Y1352294D01*
X2462378Y1351382D01*
X2462450Y1350462D01*
X2462450Y1349538D01*
X2462378Y1348618D01*
X2462233Y1347706D01*
X2462018Y1346808D01*
X2461732Y1345930D01*
X2461379Y1345077D01*
X2460960Y1344254D01*
X2460477Y1343467D01*
X2459935Y1342720D01*
X2459335Y1342018D01*
X2458682Y1341365D01*
X2457980Y1340765D01*
X2457233Y1340223D01*
X2456446Y1339740D01*
X2455623Y1339321D01*
X2454770Y1338968D01*
X2453892Y1338682D01*
X2452994Y1338467D01*
X2452082Y1338322D01*
X2451162Y1338250D01*
X2450238Y1338250D01*
X2449318Y1338322D01*
X2448406Y1338467D01*
X2447508Y1338682D01*
X2446630Y1338968D01*
X2445777Y1339321D01*
X2444954Y1339740D01*
X2444167Y1340223D01*
X2443420Y1340765D01*
X2442718Y1341365D01*
X2442065Y1342018D01*
X2441465Y1342720D01*
X2440923Y1343467D01*
X2440440Y1344254D01*
X2440021Y1345077D01*
X2439668Y1345930D01*
X2439382Y1346808D01*
X2439167Y1347706D01*
X2439022Y1348618D01*
X2438950Y1349538D01*
X2438950Y1350462D01*
X2439022Y1351382D01*
X2439167Y1352294D01*
X2439382Y1353192D01*
X2439668Y1354070D01*
X2440021Y1354923D01*
X2440440Y1355746D01*
X2440923Y1356533D01*
X2441465Y1357280D01*
X2442065Y1357982D01*
X2442718Y1358635D01*
X2443420Y1359235D01*
X2444167Y1359777D01*
X2444954Y1360260D01*
X2445777Y1360679D01*
X2446630Y1361032D01*
X2447508Y1361318D01*
X2448406Y1361533D01*
X2449318Y1361678D01*
X2450238Y1361750D01*
X2451162Y1361750D01*
X2491200Y1214000D02*
X2492198Y1213929D01*
X2493187Y1213786D01*
X2494165Y1213574D01*
X2495124Y1213292D01*
X2496061Y1212943D01*
X2496971Y1212527D01*
X2497848Y1212048D01*
X2498690Y1211507D01*
X2499490Y1210908D01*
X2500246Y1210253D01*
X2500953Y1209546D01*
X2501608Y1208790D01*
X2502207Y1207990D01*
X2502748Y1207148D01*
X2503227Y1206271D01*
X2503643Y1205361D01*
X2503992Y1204424D01*
X2504274Y1203465D01*
X2504486Y1202487D01*
X2504629Y1201498D01*
X2504700Y1200500D01*
X2504700Y1199500D01*
X2504629Y1198503D01*
X2504486Y1197513D01*
X2504274Y1196536D01*
X2503992Y1195576D01*
X2503643Y1194639D01*
X2503227Y1193729D01*
X2502748Y1192852D01*
X2502207Y1192010D01*
X2501608Y1191210D01*
X2500953Y1190454D01*
X2500246Y1189747D01*
X2499490Y1189092D01*
X2498690Y1188493D01*
X2497848Y1187952D01*
X2496971Y1187473D01*
X2496061Y1187057D01*
X2495124Y1186708D01*
X2494165Y1186426D01*
X2493187Y1186214D01*
X2492198Y1186071D01*
X2491200Y1186000D01*
X2490200Y1186000D01*
X2489203Y1186071D01*
X2488213Y1186214D01*
X2487236Y1186426D01*
X2486276Y1186708D01*
X2485339Y1187057D01*
X2484429Y1187473D01*
X2483552Y1187952D01*
X2482710Y1188493D01*
X2481910Y1189092D01*
X2481154Y1189747D01*
X2480447Y1190454D01*
X2479792Y1191210D01*
X2479193Y1192010D01*
X2478652Y1192852D01*
X2478173Y1193729D01*
X2477757Y1194639D01*
X2477408Y1195576D01*
X2477126Y1196536D01*
X2476914Y1197513D01*
X2476771Y1198503D01*
X2476700Y1199500D01*
X2476700Y1200500D01*
X2476771Y1201498D01*
X2476914Y1202487D01*
X2477126Y1203465D01*
X2477408Y1204424D01*
X2477757Y1205361D01*
X2478173Y1206271D01*
X2478652Y1207148D01*
X2479193Y1207990D01*
X2479792Y1208790D01*
X2480447Y1209546D01*
X2481154Y1210253D01*
X2481910Y1210908D01*
X2482710Y1211507D01*
X2483552Y1212048D01*
X2484429Y1212527D01*
X2485339Y1212943D01*
X2486276Y1213292D01*
X2487236Y1213574D01*
X2488213Y1213786D01*
X2489203Y1213929D01*
X2490200Y1214000D01*
X2491200Y1214000D01*
X2491200Y1364000D02*
X2492198Y1363929D01*
X2493187Y1363786D01*
X2494165Y1363574D01*
X2495124Y1363292D01*
X2496061Y1362943D01*
X2496971Y1362527D01*
X2497848Y1362048D01*
X2498690Y1361507D01*
X2499490Y1360908D01*
X2500246Y1360253D01*
X2500953Y1359546D01*
X2501608Y1358790D01*
X2502207Y1357990D01*
X2502748Y1357148D01*
X2503227Y1356271D01*
X2503643Y1355361D01*
X2503992Y1354424D01*
X2504274Y1353465D01*
X2504486Y1352487D01*
X2504629Y1351498D01*
X2504700Y1350500D01*
X2504700Y1349500D01*
X2504629Y1348503D01*
X2504486Y1347513D01*
X2504274Y1346536D01*
X2503992Y1345576D01*
X2503643Y1344639D01*
X2503227Y1343729D01*
X2502748Y1342852D01*
X2502207Y1342010D01*
X2501608Y1341210D01*
X2500953Y1340454D01*
X2500246Y1339747D01*
X2499490Y1339092D01*
X2498690Y1338493D01*
X2497848Y1337952D01*
X2496971Y1337473D01*
X2496061Y1337057D01*
X2495124Y1336708D01*
X2494165Y1336426D01*
X2493187Y1336214D01*
X2492198Y1336071D01*
X2491200Y1336000D01*
X2490200Y1336000D01*
X2489203Y1336071D01*
X2488213Y1336214D01*
X2487236Y1336426D01*
X2486276Y1336708D01*
X2485339Y1337057D01*
X2484429Y1337473D01*
X2483552Y1337952D01*
X2482710Y1338493D01*
X2481910Y1339092D01*
X2481154Y1339747D01*
X2480447Y1340454D01*
X2479792Y1341210D01*
X2479193Y1342010D01*
X2478652Y1342852D01*
X2478173Y1343729D01*
X2477757Y1344639D01*
X2477408Y1345576D01*
X2477126Y1346536D01*
X2476914Y1347513D01*
X2476771Y1348503D01*
X2476700Y1349500D01*
X2476700Y1350500D01*
X2476771Y1351498D01*
X2476914Y1352487D01*
X2477126Y1353465D01*
X2477408Y1354424D01*
X2477757Y1355361D01*
X2478173Y1356271D01*
X2478652Y1357148D01*
X2479193Y1357990D01*
X2479792Y1358790D01*
X2480447Y1359546D01*
X2481154Y1360253D01*
X2481910Y1360908D01*
X2482710Y1361507D01*
X2483552Y1362048D01*
X2484429Y1362527D01*
X2485339Y1362943D01*
X2486276Y1363292D01*
X2487236Y1363574D01*
X2488213Y1363786D01*
X2489203Y1363929D01*
X2490200Y1364000D01*
X2491200Y1364000D01*
X2451162Y1436750D02*
X2452082Y1436678D01*
X2452994Y1436533D01*
X2453892Y1436318D01*
X2454770Y1436032D01*
X2455623Y1435679D01*
X2456446Y1435260D01*
X2457233Y1434777D01*
X2457980Y1434235D01*
X2458682Y1433635D01*
X2459335Y1432982D01*
X2459935Y1432280D01*
X2460477Y1431533D01*
X2460960Y1430746D01*
X2461379Y1429923D01*
X2461732Y1429070D01*
X2462018Y1428192D01*
X2462233Y1427294D01*
X2462378Y1426382D01*
X2462450Y1425462D01*
X2462450Y1424538D01*
X2462378Y1423618D01*
X2462233Y1422706D01*
X2462018Y1421808D01*
X2461732Y1420930D01*
X2461379Y1420077D01*
X2460960Y1419254D01*
X2460477Y1418467D01*
X2459935Y1417720D01*
X2459335Y1417018D01*
X2458682Y1416365D01*
X2457980Y1415765D01*
X2457233Y1415223D01*
X2456446Y1414740D01*
X2455623Y1414321D01*
X2454770Y1413968D01*
X2453892Y1413682D01*
X2452994Y1413467D01*
X2452082Y1413322D01*
X2451162Y1413250D01*
X2450238Y1413250D01*
X2449318Y1413322D01*
X2448406Y1413467D01*
X2447508Y1413682D01*
X2446630Y1413968D01*
X2445777Y1414321D01*
X2444954Y1414740D01*
X2444167Y1415223D01*
X2443420Y1415765D01*
X2442718Y1416365D01*
X2442065Y1417018D01*
X2441465Y1417720D01*
X2440923Y1418467D01*
X2440440Y1419254D01*
X2440021Y1420077D01*
X2439668Y1420930D01*
X2439382Y1421808D01*
X2439167Y1422706D01*
X2439022Y1423618D01*
X2438950Y1424538D01*
X2438950Y1425462D01*
X2439022Y1426382D01*
X2439167Y1427294D01*
X2439382Y1428192D01*
X2439668Y1429070D01*
X2440021Y1429923D01*
X2440440Y1430746D01*
X2440923Y1431533D01*
X2441465Y1432280D01*
X2442065Y1432982D01*
X2442718Y1433635D01*
X2443420Y1434235D01*
X2444167Y1434777D01*
X2444954Y1435260D01*
X2445777Y1435679D01*
X2446630Y1436032D01*
X2447508Y1436318D01*
X2448406Y1436533D01*
X2449318Y1436678D01*
X2450238Y1436750D01*
X2451162Y1436750D01*
X2451162Y1586750D02*
X2452082Y1586678D01*
X2452994Y1586533D01*
X2453892Y1586318D01*
X2454770Y1586032D01*
X2455623Y1585679D01*
X2456446Y1585260D01*
X2457233Y1584777D01*
X2457980Y1584235D01*
X2458682Y1583635D01*
X2459335Y1582982D01*
X2459935Y1582280D01*
X2460477Y1581533D01*
X2460960Y1580746D01*
X2461379Y1579923D01*
X2461732Y1579070D01*
X2462018Y1578192D01*
X2462233Y1577294D01*
X2462378Y1576382D01*
X2462450Y1575462D01*
X2462450Y1574538D01*
X2462378Y1573618D01*
X2462233Y1572706D01*
X2462018Y1571808D01*
X2461732Y1570930D01*
X2461379Y1570077D01*
X2460960Y1569254D01*
X2460477Y1568467D01*
X2459935Y1567720D01*
X2459335Y1567018D01*
X2458682Y1566365D01*
X2457980Y1565765D01*
X2457233Y1565223D01*
X2456446Y1564740D01*
X2455623Y1564321D01*
X2454770Y1563968D01*
X2453892Y1563682D01*
X2452994Y1563467D01*
X2452082Y1563322D01*
X2451162Y1563250D01*
X2450238Y1563250D01*
X2449318Y1563322D01*
X2448406Y1563467D01*
X2447508Y1563682D01*
X2446630Y1563968D01*
X2445777Y1564321D01*
X2444954Y1564740D01*
X2444167Y1565223D01*
X2443420Y1565765D01*
X2442718Y1566365D01*
X2442065Y1567018D01*
X2441465Y1567720D01*
X2440923Y1568467D01*
X2440440Y1569254D01*
X2440021Y1570077D01*
X2439668Y1570930D01*
X2439382Y1571808D01*
X2439167Y1572706D01*
X2439022Y1573618D01*
X2438950Y1574538D01*
X2438950Y1575462D01*
X2439022Y1576382D01*
X2439167Y1577294D01*
X2439382Y1578192D01*
X2439668Y1579070D01*
X2440021Y1579923D01*
X2440440Y1580746D01*
X2440923Y1581533D01*
X2441465Y1582280D01*
X2442065Y1582982D01*
X2442718Y1583635D01*
X2443420Y1584235D01*
X2444167Y1584777D01*
X2444954Y1585260D01*
X2445777Y1585679D01*
X2446630Y1586032D01*
X2447508Y1586318D01*
X2448406Y1586533D01*
X2449318Y1586678D01*
X2450238Y1586750D01*
X2451162Y1586750D01*
X2491200Y1439000D02*
X2492198Y1438929D01*
X2493187Y1438786D01*
X2494165Y1438574D01*
X2495124Y1438292D01*
X2496061Y1437943D01*
X2496971Y1437527D01*
X2497848Y1437048D01*
X2498690Y1436507D01*
X2499490Y1435908D01*
X2500246Y1435253D01*
X2500953Y1434546D01*
X2501608Y1433790D01*
X2502207Y1432990D01*
X2502748Y1432148D01*
X2503227Y1431271D01*
X2503643Y1430361D01*
X2503992Y1429424D01*
X2504274Y1428465D01*
X2504486Y1427487D01*
X2504629Y1426498D01*
X2504700Y1425500D01*
X2504700Y1424500D01*
X2504629Y1423503D01*
X2504486Y1422513D01*
X2504274Y1421536D01*
X2503992Y1420576D01*
X2503643Y1419639D01*
X2503227Y1418729D01*
X2502748Y1417852D01*
X2502207Y1417010D01*
X2501608Y1416210D01*
X2500953Y1415454D01*
X2500246Y1414747D01*
X2499490Y1414092D01*
X2498690Y1413493D01*
X2497848Y1412952D01*
X2496971Y1412473D01*
X2496061Y1412057D01*
X2495124Y1411708D01*
X2494165Y1411426D01*
X2493187Y1411214D01*
X2492198Y1411071D01*
X2491200Y1411000D01*
X2490200Y1411000D01*
X2489203Y1411071D01*
X2488213Y1411214D01*
X2487236Y1411426D01*
X2486276Y1411708D01*
X2485339Y1412057D01*
X2484429Y1412473D01*
X2483552Y1412952D01*
X2482710Y1413493D01*
X2481910Y1414092D01*
X2481154Y1414747D01*
X2480447Y1415454D01*
X2479792Y1416210D01*
X2479193Y1417010D01*
X2478652Y1417852D01*
X2478173Y1418729D01*
X2477757Y1419639D01*
X2477408Y1420576D01*
X2477126Y1421536D01*
X2476914Y1422513D01*
X2476771Y1423503D01*
X2476700Y1424500D01*
X2476700Y1425500D01*
X2476771Y1426498D01*
X2476914Y1427487D01*
X2477126Y1428465D01*
X2477408Y1429424D01*
X2477757Y1430361D01*
X2478173Y1431271D01*
X2478652Y1432148D01*
X2479193Y1432990D01*
X2479792Y1433790D01*
X2480447Y1434546D01*
X2481154Y1435253D01*
X2481910Y1435908D01*
X2482710Y1436507D01*
X2483552Y1437048D01*
X2484429Y1437527D01*
X2485339Y1437943D01*
X2486276Y1438292D01*
X2487236Y1438574D01*
X2488213Y1438786D01*
X2489203Y1438929D01*
X2490200Y1439000D01*
X2491200Y1439000D01*
X2491200Y1589000D02*
X2492198Y1588929D01*
X2493187Y1588786D01*
X2494165Y1588574D01*
X2495124Y1588292D01*
X2496061Y1587943D01*
X2496971Y1587527D01*
X2497848Y1587048D01*
X2498690Y1586507D01*
X2499490Y1585908D01*
X2500246Y1585253D01*
X2500953Y1584546D01*
X2501608Y1583790D01*
X2502207Y1582990D01*
X2502748Y1582148D01*
X2503227Y1581271D01*
X2503643Y1580361D01*
X2503992Y1579424D01*
X2504274Y1578465D01*
X2504486Y1577487D01*
X2504629Y1576498D01*
X2504700Y1575500D01*
X2504700Y1574500D01*
X2504629Y1573503D01*
X2504486Y1572513D01*
X2504274Y1571536D01*
X2503992Y1570576D01*
X2503643Y1569639D01*
X2503227Y1568729D01*
X2502748Y1567852D01*
X2502207Y1567010D01*
X2501608Y1566210D01*
X2500953Y1565454D01*
X2500246Y1564747D01*
X2499490Y1564092D01*
X2498690Y1563493D01*
X2497848Y1562952D01*
X2496971Y1562473D01*
X2496061Y1562057D01*
X2495124Y1561708D01*
X2494165Y1561426D01*
X2493187Y1561214D01*
X2492198Y1561071D01*
X2491200Y1561000D01*
X2490200Y1561000D01*
X2489203Y1561071D01*
X2488213Y1561214D01*
X2487236Y1561426D01*
X2486276Y1561708D01*
X2485339Y1562057D01*
X2484429Y1562473D01*
X2483552Y1562952D01*
X2482710Y1563493D01*
X2481910Y1564092D01*
X2481154Y1564747D01*
X2480447Y1565454D01*
X2479792Y1566210D01*
X2479193Y1567010D01*
X2478652Y1567852D01*
X2478173Y1568729D01*
X2477757Y1569639D01*
X2477408Y1570576D01*
X2477126Y1571536D01*
X2476914Y1572513D01*
X2476771Y1573503D01*
X2476700Y1574500D01*
X2476700Y1575500D01*
X2476771Y1576498D01*
X2476914Y1577487D01*
X2477126Y1578465D01*
X2477408Y1579424D01*
X2477757Y1580361D01*
X2478173Y1581271D01*
X2478652Y1582148D01*
X2479193Y1582990D01*
X2479792Y1583790D01*
X2480447Y1584546D01*
X2481154Y1585253D01*
X2481910Y1585908D01*
X2482710Y1586507D01*
X2483552Y1587048D01*
X2484429Y1587527D01*
X2485339Y1587943D01*
X2486276Y1588292D01*
X2487236Y1588574D01*
X2488213Y1588786D01*
X2489203Y1588929D01*
X2490200Y1589000D01*
X2491200Y1589000D01*
X2451162Y1886750D02*
X2452082Y1886678D01*
X2452994Y1886533D01*
X2453892Y1886318D01*
X2454770Y1886032D01*
X2455623Y1885679D01*
X2456446Y1885260D01*
X2457233Y1884777D01*
X2457980Y1884235D01*
X2458682Y1883635D01*
X2459335Y1882982D01*
X2459935Y1882280D01*
X2460477Y1881533D01*
X2460960Y1880746D01*
X2461379Y1879923D01*
X2461732Y1879070D01*
X2462018Y1878192D01*
X2462233Y1877294D01*
X2462378Y1876382D01*
X2462450Y1875462D01*
X2462450Y1874538D01*
X2462378Y1873618D01*
X2462233Y1872706D01*
X2462018Y1871808D01*
X2461732Y1870930D01*
X2461379Y1870077D01*
X2460960Y1869254D01*
X2460477Y1868467D01*
X2459935Y1867720D01*
X2459335Y1867018D01*
X2458682Y1866365D01*
X2457980Y1865765D01*
X2457233Y1865223D01*
X2456446Y1864740D01*
X2455623Y1864321D01*
X2454770Y1863968D01*
X2453892Y1863682D01*
X2452994Y1863467D01*
X2452082Y1863322D01*
X2451162Y1863250D01*
X2450238Y1863250D01*
X2449318Y1863322D01*
X2448406Y1863467D01*
X2447508Y1863682D01*
X2446630Y1863968D01*
X2445777Y1864321D01*
X2444954Y1864740D01*
X2444167Y1865223D01*
X2443420Y1865765D01*
X2442718Y1866365D01*
X2442065Y1867018D01*
X2441465Y1867720D01*
X2440923Y1868467D01*
X2440440Y1869254D01*
X2440021Y1870077D01*
X2439668Y1870930D01*
X2439382Y1871808D01*
X2439167Y1872706D01*
X2439022Y1873618D01*
X2438950Y1874538D01*
X2438950Y1875462D01*
X2439022Y1876382D01*
X2439167Y1877294D01*
X2439382Y1878192D01*
X2439668Y1879070D01*
X2440021Y1879923D01*
X2440440Y1880746D01*
X2440923Y1881533D01*
X2441465Y1882280D01*
X2442065Y1882982D01*
X2442718Y1883635D01*
X2443420Y1884235D01*
X2444167Y1884777D01*
X2444954Y1885260D01*
X2445777Y1885679D01*
X2446630Y1886032D01*
X2447508Y1886318D01*
X2448406Y1886533D01*
X2449318Y1886678D01*
X2450238Y1886750D01*
X2451162Y1886750D01*
X2451162Y2036750D02*
X2452082Y2036678D01*
X2452994Y2036533D01*
X2453892Y2036318D01*
X2454770Y2036032D01*
X2455623Y2035679D01*
X2456446Y2035260D01*
X2457233Y2034777D01*
X2457980Y2034235D01*
X2458682Y2033635D01*
X2459335Y2032982D01*
X2459935Y2032280D01*
X2460477Y2031533D01*
X2460960Y2030746D01*
X2461379Y2029923D01*
X2461732Y2029070D01*
X2462018Y2028192D01*
X2462233Y2027294D01*
X2462378Y2026382D01*
X2462450Y2025462D01*
X2462450Y2024538D01*
X2462378Y2023618D01*
X2462233Y2022706D01*
X2462018Y2021808D01*
X2461732Y2020930D01*
X2461379Y2020077D01*
X2460960Y2019254D01*
X2460477Y2018467D01*
X2459935Y2017720D01*
X2459335Y2017018D01*
X2458682Y2016365D01*
X2457980Y2015765D01*
X2457233Y2015223D01*
X2456446Y2014740D01*
X2455623Y2014321D01*
X2454770Y2013968D01*
X2453892Y2013682D01*
X2452994Y2013467D01*
X2452082Y2013322D01*
X2451162Y2013250D01*
X2450238Y2013250D01*
X2449318Y2013322D01*
X2448406Y2013467D01*
X2447508Y2013682D01*
X2446630Y2013968D01*
X2445777Y2014321D01*
X2444954Y2014740D01*
X2444167Y2015223D01*
X2443420Y2015765D01*
X2442718Y2016365D01*
X2442065Y2017018D01*
X2441465Y2017720D01*
X2440923Y2018467D01*
X2440440Y2019254D01*
X2440021Y2020077D01*
X2439668Y2020930D01*
X2439382Y2021808D01*
X2439167Y2022706D01*
X2439022Y2023618D01*
X2438950Y2024538D01*
X2438950Y2025462D01*
X2439022Y2026382D01*
X2439167Y2027294D01*
X2439382Y2028192D01*
X2439668Y2029070D01*
X2440021Y2029923D01*
X2440440Y2030746D01*
X2440923Y2031533D01*
X2441465Y2032280D01*
X2442065Y2032982D01*
X2442718Y2033635D01*
X2443420Y2034235D01*
X2444167Y2034777D01*
X2444954Y2035260D01*
X2445777Y2035679D01*
X2446630Y2036032D01*
X2447508Y2036318D01*
X2448406Y2036533D01*
X2449318Y2036678D01*
X2450238Y2036750D01*
X2451162Y2036750D01*
X2491200Y1889000D02*
X2492198Y1888929D01*
X2493187Y1888786D01*
X2494165Y1888574D01*
X2495124Y1888292D01*
X2496061Y1887943D01*
X2496971Y1887527D01*
X2497848Y1887048D01*
X2498690Y1886507D01*
X2499490Y1885908D01*
X2500246Y1885253D01*
X2500953Y1884546D01*
X2501608Y1883790D01*
X2502207Y1882990D01*
X2502748Y1882148D01*
X2503227Y1881271D01*
X2503643Y1880361D01*
X2503992Y1879424D01*
X2504274Y1878465D01*
X2504486Y1877487D01*
X2504629Y1876498D01*
X2504700Y1875500D01*
X2504700Y1874500D01*
X2504629Y1873503D01*
X2504486Y1872513D01*
X2504274Y1871536D01*
X2503992Y1870576D01*
X2503643Y1869639D01*
X2503227Y1868729D01*
X2502748Y1867852D01*
X2502207Y1867010D01*
X2501608Y1866210D01*
X2500953Y1865454D01*
X2500246Y1864747D01*
X2499490Y1864092D01*
X2498690Y1863493D01*
X2497848Y1862952D01*
X2496971Y1862473D01*
X2496061Y1862057D01*
X2495124Y1861708D01*
X2494165Y1861426D01*
X2493187Y1861214D01*
X2492198Y1861071D01*
X2491200Y1861000D01*
X2490200Y1861000D01*
X2489203Y1861071D01*
X2488213Y1861214D01*
X2487236Y1861426D01*
X2486276Y1861708D01*
X2485339Y1862057D01*
X2484429Y1862473D01*
X2483552Y1862952D01*
X2482710Y1863493D01*
X2481910Y1864092D01*
X2481154Y1864747D01*
X2480447Y1865454D01*
X2479792Y1866210D01*
X2479193Y1867010D01*
X2478652Y1867852D01*
X2478173Y1868729D01*
X2477757Y1869639D01*
X2477408Y1870576D01*
X2477126Y1871536D01*
X2476914Y1872513D01*
X2476771Y1873503D01*
X2476700Y1874500D01*
X2476700Y1875500D01*
X2476771Y1876498D01*
X2476914Y1877487D01*
X2477126Y1878465D01*
X2477408Y1879424D01*
X2477757Y1880361D01*
X2478173Y1881271D01*
X2478652Y1882148D01*
X2479193Y1882990D01*
X2479792Y1883790D01*
X2480447Y1884546D01*
X2481154Y1885253D01*
X2481910Y1885908D01*
X2482710Y1886507D01*
X2483552Y1887048D01*
X2484429Y1887527D01*
X2485339Y1887943D01*
X2486276Y1888292D01*
X2487236Y1888574D01*
X2488213Y1888786D01*
X2489203Y1888929D01*
X2490200Y1889000D01*
X2491200Y1889000D01*
X2491200Y2039000D02*
X2492198Y2038929D01*
X2493187Y2038786D01*
X2494165Y2038574D01*
X2495124Y2038292D01*
X2496061Y2037943D01*
X2496971Y2037527D01*
X2497848Y2037048D01*
X2498690Y2036507D01*
X2499490Y2035908D01*
X2500246Y2035253D01*
X2500953Y2034546D01*
X2501608Y2033790D01*
X2502207Y2032990D01*
X2502748Y2032148D01*
X2503227Y2031271D01*
X2503643Y2030361D01*
X2503992Y2029424D01*
X2504274Y2028465D01*
X2504486Y2027487D01*
X2504629Y2026498D01*
X2504700Y2025500D01*
X2504700Y2024500D01*
X2504629Y2023503D01*
X2504486Y2022513D01*
X2504274Y2021536D01*
X2503992Y2020576D01*
X2503643Y2019639D01*
X2503227Y2018729D01*
X2502748Y2017852D01*
X2502207Y2017010D01*
X2501608Y2016210D01*
X2500953Y2015454D01*
X2500246Y2014747D01*
X2499490Y2014092D01*
X2498690Y2013493D01*
X2497848Y2012952D01*
X2496971Y2012473D01*
X2496061Y2012057D01*
X2495124Y2011708D01*
X2494165Y2011426D01*
X2493187Y2011214D01*
X2492198Y2011071D01*
X2491200Y2011000D01*
X2490200Y2011000D01*
X2489203Y2011071D01*
X2488213Y2011214D01*
X2487236Y2011426D01*
X2486276Y2011708D01*
X2485339Y2012057D01*
X2484429Y2012473D01*
X2483552Y2012952D01*
X2482710Y2013493D01*
X2481910Y2014092D01*
X2481154Y2014747D01*
X2480447Y2015454D01*
X2479792Y2016210D01*
X2479193Y2017010D01*
X2478652Y2017852D01*
X2478173Y2018729D01*
X2477757Y2019639D01*
X2477408Y2020576D01*
X2477126Y2021536D01*
X2476914Y2022513D01*
X2476771Y2023503D01*
X2476700Y2024500D01*
X2476700Y2025500D01*
X2476771Y2026498D01*
X2476914Y2027487D01*
X2477126Y2028465D01*
X2477408Y2029424D01*
X2477757Y2030361D01*
X2478173Y2031271D01*
X2478652Y2032148D01*
X2479193Y2032990D01*
X2479792Y2033790D01*
X2480447Y2034546D01*
X2481154Y2035253D01*
X2481910Y2035908D01*
X2482710Y2036507D01*
X2483552Y2037048D01*
X2484429Y2037527D01*
X2485339Y2037943D01*
X2486276Y2038292D01*
X2487236Y2038574D01*
X2488213Y2038786D01*
X2489203Y2038929D01*
X2490200Y2039000D01*
X2491200Y2039000D01*
X2451162Y1661750D02*
X2452082Y1661678D01*
X2452994Y1661533D01*
X2453892Y1661318D01*
X2454770Y1661032D01*
X2455623Y1660679D01*
X2456446Y1660260D01*
X2457233Y1659777D01*
X2457980Y1659235D01*
X2458682Y1658635D01*
X2459335Y1657982D01*
X2459935Y1657280D01*
X2460477Y1656533D01*
X2460960Y1655746D01*
X2461379Y1654923D01*
X2461732Y1654070D01*
X2462018Y1653192D01*
X2462233Y1652294D01*
X2462378Y1651382D01*
X2462450Y1650462D01*
X2462450Y1649538D01*
X2462378Y1648618D01*
X2462233Y1647706D01*
X2462018Y1646808D01*
X2461732Y1645930D01*
X2461379Y1645077D01*
X2460960Y1644254D01*
X2460477Y1643467D01*
X2459935Y1642720D01*
X2459335Y1642018D01*
X2458682Y1641365D01*
X2457980Y1640765D01*
X2457233Y1640223D01*
X2456446Y1639740D01*
X2455623Y1639321D01*
X2454770Y1638968D01*
X2453892Y1638682D01*
X2452994Y1638467D01*
X2452082Y1638322D01*
X2451162Y1638250D01*
X2450238Y1638250D01*
X2449318Y1638322D01*
X2448406Y1638467D01*
X2447508Y1638682D01*
X2446630Y1638968D01*
X2445777Y1639321D01*
X2444954Y1639740D01*
X2444167Y1640223D01*
X2443420Y1640765D01*
X2442718Y1641365D01*
X2442065Y1642018D01*
X2441465Y1642720D01*
X2440923Y1643467D01*
X2440440Y1644254D01*
X2440021Y1645077D01*
X2439668Y1645930D01*
X2439382Y1646808D01*
X2439167Y1647706D01*
X2439022Y1648618D01*
X2438950Y1649538D01*
X2438950Y1650462D01*
X2439022Y1651382D01*
X2439167Y1652294D01*
X2439382Y1653192D01*
X2439668Y1654070D01*
X2440021Y1654923D01*
X2440440Y1655746D01*
X2440923Y1656533D01*
X2441465Y1657280D01*
X2442065Y1657982D01*
X2442718Y1658635D01*
X2443420Y1659235D01*
X2444167Y1659777D01*
X2444954Y1660260D01*
X2445777Y1660679D01*
X2446630Y1661032D01*
X2447508Y1661318D01*
X2448406Y1661533D01*
X2449318Y1661678D01*
X2450238Y1661750D01*
X2451162Y1661750D01*
X2451162Y1811750D02*
X2452082Y1811678D01*
X2452994Y1811533D01*
X2453892Y1811318D01*
X2454770Y1811032D01*
X2455623Y1810679D01*
X2456446Y1810260D01*
X2457233Y1809777D01*
X2457980Y1809235D01*
X2458682Y1808635D01*
X2459335Y1807982D01*
X2459935Y1807280D01*
X2460477Y1806533D01*
X2460960Y1805746D01*
X2461379Y1804923D01*
X2461732Y1804070D01*
X2462018Y1803192D01*
X2462233Y1802294D01*
X2462378Y1801382D01*
X2462450Y1800462D01*
X2462450Y1799538D01*
X2462378Y1798618D01*
X2462233Y1797706D01*
X2462018Y1796808D01*
X2461732Y1795930D01*
X2461379Y1795077D01*
X2460960Y1794254D01*
X2460477Y1793467D01*
X2459935Y1792720D01*
X2459335Y1792018D01*
X2458682Y1791365D01*
X2457980Y1790765D01*
X2457233Y1790223D01*
X2456446Y1789740D01*
X2455623Y1789321D01*
X2454770Y1788968D01*
X2453892Y1788682D01*
X2452994Y1788467D01*
X2452082Y1788322D01*
X2451162Y1788250D01*
X2450238Y1788250D01*
X2449318Y1788322D01*
X2448406Y1788467D01*
X2447508Y1788682D01*
X2446630Y1788968D01*
X2445777Y1789321D01*
X2444954Y1789740D01*
X2444167Y1790223D01*
X2443420Y1790765D01*
X2442718Y1791365D01*
X2442065Y1792018D01*
X2441465Y1792720D01*
X2440923Y1793467D01*
X2440440Y1794254D01*
X2440021Y1795077D01*
X2439668Y1795930D01*
X2439382Y1796808D01*
X2439167Y1797706D01*
X2439022Y1798618D01*
X2438950Y1799538D01*
X2438950Y1800462D01*
X2439022Y1801382D01*
X2439167Y1802294D01*
X2439382Y1803192D01*
X2439668Y1804070D01*
X2440021Y1804923D01*
X2440440Y1805746D01*
X2440923Y1806533D01*
X2441465Y1807280D01*
X2442065Y1807982D01*
X2442718Y1808635D01*
X2443420Y1809235D01*
X2444167Y1809777D01*
X2444954Y1810260D01*
X2445777Y1810679D01*
X2446630Y1811032D01*
X2447508Y1811318D01*
X2448406Y1811533D01*
X2449318Y1811678D01*
X2450238Y1811750D01*
X2451162Y1811750D01*
X2491200Y1664000D02*
X2492198Y1663929D01*
X2493187Y1663786D01*
X2494165Y1663574D01*
X2495124Y1663292D01*
X2496061Y1662943D01*
X2496971Y1662527D01*
X2497848Y1662048D01*
X2498690Y1661507D01*
X2499490Y1660908D01*
X2500246Y1660253D01*
X2500953Y1659546D01*
X2501608Y1658790D01*
X2502207Y1657990D01*
X2502748Y1657148D01*
X2503227Y1656271D01*
X2503643Y1655361D01*
X2503992Y1654424D01*
X2504274Y1653465D01*
X2504486Y1652487D01*
X2504629Y1651498D01*
X2504700Y1650500D01*
X2504700Y1649500D01*
X2504629Y1648503D01*
X2504486Y1647513D01*
X2504274Y1646536D01*
X2503992Y1645576D01*
X2503643Y1644639D01*
X2503227Y1643729D01*
X2502748Y1642852D01*
X2502207Y1642010D01*
X2501608Y1641210D01*
X2500953Y1640454D01*
X2500246Y1639747D01*
X2499490Y1639092D01*
X2498690Y1638493D01*
X2497848Y1637952D01*
X2496971Y1637473D01*
X2496061Y1637057D01*
X2495124Y1636708D01*
X2494165Y1636426D01*
X2493187Y1636214D01*
X2492198Y1636071D01*
X2491200Y1636000D01*
X2490200Y1636000D01*
X2489203Y1636071D01*
X2488213Y1636214D01*
X2487236Y1636426D01*
X2486276Y1636708D01*
X2485339Y1637057D01*
X2484429Y1637473D01*
X2483552Y1637952D01*
X2482710Y1638493D01*
X2481910Y1639092D01*
X2481154Y1639747D01*
X2480447Y1640454D01*
X2479792Y1641210D01*
X2479193Y1642010D01*
X2478652Y1642852D01*
X2478173Y1643729D01*
X2477757Y1644639D01*
X2477408Y1645576D01*
X2477126Y1646536D01*
X2476914Y1647513D01*
X2476771Y1648503D01*
X2476700Y1649500D01*
X2476700Y1650500D01*
X2476771Y1651498D01*
X2476914Y1652487D01*
X2477126Y1653465D01*
X2477408Y1654424D01*
X2477757Y1655361D01*
X2478173Y1656271D01*
X2478652Y1657148D01*
X2479193Y1657990D01*
X2479792Y1658790D01*
X2480447Y1659546D01*
X2481154Y1660253D01*
X2481910Y1660908D01*
X2482710Y1661507D01*
X2483552Y1662048D01*
X2484429Y1662527D01*
X2485339Y1662943D01*
X2486276Y1663292D01*
X2487236Y1663574D01*
X2488213Y1663786D01*
X2489203Y1663929D01*
X2490200Y1664000D01*
X2491200Y1664000D01*
X2491200Y1814000D02*
X2492198Y1813929D01*
X2493187Y1813786D01*
X2494165Y1813574D01*
X2495124Y1813292D01*
X2496061Y1812943D01*
X2496971Y1812527D01*
X2497848Y1812048D01*
X2498690Y1811507D01*
X2499490Y1810908D01*
X2500246Y1810253D01*
X2500953Y1809546D01*
X2501608Y1808790D01*
X2502207Y1807990D01*
X2502748Y1807148D01*
X2503227Y1806271D01*
X2503643Y1805361D01*
X2503992Y1804424D01*
X2504274Y1803465D01*
X2504486Y1802487D01*
X2504629Y1801498D01*
X2504700Y1800500D01*
X2504700Y1799500D01*
X2504629Y1798503D01*
X2504486Y1797513D01*
X2504274Y1796536D01*
X2503992Y1795576D01*
X2503643Y1794639D01*
X2503227Y1793729D01*
X2502748Y1792852D01*
X2502207Y1792010D01*
X2501608Y1791210D01*
X2500953Y1790454D01*
X2500246Y1789747D01*
X2499490Y1789092D01*
X2498690Y1788493D01*
X2497848Y1787952D01*
X2496971Y1787473D01*
X2496061Y1787057D01*
X2495124Y1786708D01*
X2494165Y1786426D01*
X2493187Y1786214D01*
X2492198Y1786071D01*
X2491200Y1786000D01*
X2490200Y1786000D01*
X2489203Y1786071D01*
X2488213Y1786214D01*
X2487236Y1786426D01*
X2486276Y1786708D01*
X2485339Y1787057D01*
X2484429Y1787473D01*
X2483552Y1787952D01*
X2482710Y1788493D01*
X2481910Y1789092D01*
X2481154Y1789747D01*
X2480447Y1790454D01*
X2479792Y1791210D01*
X2479193Y1792010D01*
X2478652Y1792852D01*
X2478173Y1793729D01*
X2477757Y1794639D01*
X2477408Y1795576D01*
X2477126Y1796536D01*
X2476914Y1797513D01*
X2476771Y1798503D01*
X2476700Y1799500D01*
X2476700Y1800500D01*
X2476771Y1801498D01*
X2476914Y1802487D01*
X2477126Y1803465D01*
X2477408Y1804424D01*
X2477757Y1805361D01*
X2478173Y1806271D01*
X2478652Y1807148D01*
X2479193Y1807990D01*
X2479792Y1808790D01*
X2480447Y1809546D01*
X2481154Y1810253D01*
X2481910Y1810908D01*
X2482710Y1811507D01*
X2483552Y1812048D01*
X2484429Y1812527D01*
X2485339Y1812943D01*
X2486276Y1813292D01*
X2487236Y1813574D01*
X2488213Y1813786D01*
X2489203Y1813929D01*
X2490200Y1814000D01*
X2491200Y1814000D01*
X1345500Y861835D02*
X1345577Y863101D01*
X1345730Y864361D01*
X1345958Y865610D01*
X1346262Y866842D01*
X1346640Y868053D01*
X1347090Y869240D01*
X1347611Y870397D01*
X1348200Y871521D01*
X1348857Y872607D01*
X1349578Y873652D01*
X1350361Y874651D01*
X1351202Y875601D01*
X1352099Y876498D01*
X1353049Y877340D01*
X1354048Y878122D01*
X1355093Y878843D01*
X1356179Y879500D01*
X1357303Y880089D01*
X1358460Y880610D01*
X1359647Y881060D01*
X1360858Y881438D01*
X1362091Y881742D01*
X1363339Y881970D01*
X1364599Y882123D01*
X1365865Y882200D01*
X1367135Y882200D01*
X1368401Y882123D01*
X1369661Y881970D01*
X1370910Y881742D01*
X1372142Y881438D01*
X1373353Y881060D01*
X1374540Y880610D01*
X1375697Y880089D01*
X1376821Y879500D01*
X1377907Y878843D01*
X1378952Y878122D01*
X1379951Y877340D01*
X1380901Y876498D01*
X1381798Y875601D01*
X1382640Y874651D01*
X1383422Y873652D01*
X1384143Y872607D01*
X1384800Y871521D01*
X1385389Y870397D01*
X1385910Y869240D01*
X1386360Y868053D01*
X1386738Y866842D01*
X1387042Y865610D01*
X1387270Y864361D01*
X1387423Y863101D01*
X1387500Y861835D01*
X1387500Y860565D01*
X1387423Y859299D01*
X1387270Y858039D01*
X1387042Y856791D01*
X1386738Y855558D01*
X1386360Y854347D01*
X1385910Y853160D01*
X1385389Y852003D01*
X1384800Y850879D01*
X1384143Y849793D01*
X1383422Y848748D01*
X1382640Y847749D01*
X1381798Y846799D01*
X1380901Y845902D01*
X1379951Y845061D01*
X1378952Y844278D01*
X1377907Y843557D01*
X1376821Y842900D01*
X1375697Y842311D01*
X1374540Y841790D01*
X1373353Y841340D01*
X1372142Y840962D01*
X1370910Y840658D01*
X1369661Y840430D01*
X1368401Y840277D01*
X1367135Y840200D01*
X1365865Y840200D01*
X1364599Y840277D01*
X1363339Y840430D01*
X1362091Y840658D01*
X1360858Y840962D01*
X1359647Y841340D01*
X1358460Y841790D01*
X1357303Y842311D01*
X1356179Y842900D01*
X1355093Y843557D01*
X1354048Y844278D01*
X1353049Y845061D01*
X1352099Y845902D01*
X1351202Y846799D01*
X1350361Y847749D01*
X1349578Y848748D01*
X1348857Y849793D01*
X1348200Y850879D01*
X1347611Y852003D01*
X1347090Y853160D01*
X1346640Y854347D01*
X1346262Y855558D01*
X1345958Y856791D01*
X1345730Y858039D01*
X1345577Y859299D01*
X1345500Y860565D01*
X1345500Y861835D01*
X1345500Y1361835D02*
X1345577Y1363101D01*
X1345730Y1364361D01*
X1345958Y1365610D01*
X1346262Y1366842D01*
X1346640Y1368053D01*
X1347090Y1369240D01*
X1347611Y1370397D01*
X1348200Y1371521D01*
X1348857Y1372607D01*
X1349578Y1373652D01*
X1350361Y1374651D01*
X1351202Y1375601D01*
X1352099Y1376498D01*
X1353049Y1377340D01*
X1354048Y1378122D01*
X1355093Y1378843D01*
X1356179Y1379500D01*
X1357303Y1380089D01*
X1358460Y1380610D01*
X1359647Y1381060D01*
X1360858Y1381438D01*
X1362091Y1381742D01*
X1363339Y1381970D01*
X1364599Y1382123D01*
X1365865Y1382200D01*
X1367135Y1382200D01*
X1368401Y1382123D01*
X1369661Y1381970D01*
X1370910Y1381742D01*
X1372142Y1381438D01*
X1373353Y1381060D01*
X1374540Y1380610D01*
X1375697Y1380089D01*
X1376821Y1379500D01*
X1377907Y1378843D01*
X1378952Y1378122D01*
X1379951Y1377340D01*
X1380901Y1376498D01*
X1381798Y1375601D01*
X1382640Y1374651D01*
X1383422Y1373652D01*
X1384143Y1372607D01*
X1384800Y1371521D01*
X1385389Y1370397D01*
X1385910Y1369240D01*
X1386360Y1368053D01*
X1386738Y1366842D01*
X1387042Y1365610D01*
X1387270Y1364361D01*
X1387423Y1363101D01*
X1387500Y1361835D01*
X1387500Y1360565D01*
X1387423Y1359299D01*
X1387270Y1358039D01*
X1387042Y1356791D01*
X1386738Y1355558D01*
X1386360Y1354347D01*
X1385910Y1353160D01*
X1385389Y1352003D01*
X1384800Y1350879D01*
X1384143Y1349793D01*
X1383422Y1348748D01*
X1382640Y1347749D01*
X1381798Y1346799D01*
X1380901Y1345902D01*
X1379951Y1345061D01*
X1378952Y1344278D01*
X1377907Y1343557D01*
X1376821Y1342900D01*
X1375697Y1342311D01*
X1374540Y1341790D01*
X1373353Y1341340D01*
X1372142Y1340962D01*
X1370910Y1340658D01*
X1369661Y1340430D01*
X1368401Y1340277D01*
X1367135Y1340200D01*
X1365865Y1340200D01*
X1364599Y1340277D01*
X1363339Y1340430D01*
X1362091Y1340658D01*
X1360858Y1340962D01*
X1359647Y1341340D01*
X1358460Y1341790D01*
X1357303Y1342311D01*
X1356179Y1342900D01*
X1355093Y1343557D01*
X1354048Y1344278D01*
X1353049Y1345061D01*
X1352099Y1345902D01*
X1351202Y1346799D01*
X1350361Y1347749D01*
X1349578Y1348748D01*
X1348857Y1349793D01*
X1348200Y1350879D01*
X1347611Y1352003D01*
X1347090Y1353160D01*
X1346640Y1354347D01*
X1346262Y1355558D01*
X1345958Y1356791D01*
X1345730Y1358039D01*
X1345577Y1359299D01*
X1345500Y1360565D01*
X1345500Y1361835D01*
X45500Y861835D02*
X45577Y863101D01*
X45730Y864361D01*
X45958Y865610D01*
X46262Y866842D01*
X46640Y868053D01*
X47090Y869240D01*
X47611Y870397D01*
X48200Y871521D01*
X48857Y872607D01*
X49578Y873652D01*
X50361Y874651D01*
X51202Y875601D01*
X52099Y876498D01*
X53049Y877340D01*
X54048Y878122D01*
X55093Y878843D01*
X56179Y879500D01*
X57303Y880089D01*
X58460Y880610D01*
X59647Y881060D01*
X60858Y881438D01*
X62091Y881742D01*
X63339Y881970D01*
X64599Y882123D01*
X65865Y882200D01*
X67135Y882200D01*
X68401Y882123D01*
X69661Y881970D01*
X70910Y881742D01*
X72142Y881438D01*
X73353Y881060D01*
X74540Y880610D01*
X75697Y880089D01*
X76821Y879500D01*
X77907Y878843D01*
X78952Y878122D01*
X79951Y877340D01*
X80901Y876498D01*
X81798Y875601D01*
X82640Y874651D01*
X83422Y873652D01*
X84143Y872607D01*
X84800Y871521D01*
X85389Y870397D01*
X85910Y869240D01*
X86360Y868053D01*
X86738Y866842D01*
X87042Y865610D01*
X87270Y864361D01*
X87423Y863101D01*
X87500Y861835D01*
X87500Y860565D01*
X87423Y859299D01*
X87270Y858039D01*
X87042Y856791D01*
X86738Y855558D01*
X86360Y854347D01*
X85910Y853160D01*
X85389Y852003D01*
X84800Y850879D01*
X84143Y849793D01*
X83422Y848748D01*
X82640Y847749D01*
X81798Y846799D01*
X80901Y845902D01*
X79951Y845061D01*
X78952Y844278D01*
X77907Y843557D01*
X76821Y842900D01*
X75697Y842311D01*
X74540Y841790D01*
X73353Y841340D01*
X72142Y840962D01*
X70910Y840658D01*
X69661Y840430D01*
X68401Y840277D01*
X67135Y840200D01*
X65865Y840200D01*
X64599Y840277D01*
X63339Y840430D01*
X62091Y840658D01*
X60858Y840962D01*
X59647Y841340D01*
X58460Y841790D01*
X57303Y842311D01*
X56179Y842900D01*
X55093Y843557D01*
X54048Y844278D01*
X53049Y845061D01*
X52099Y845902D01*
X51202Y846799D01*
X50361Y847749D01*
X49578Y848748D01*
X48857Y849793D01*
X48200Y850879D01*
X47611Y852003D01*
X47090Y853160D01*
X46640Y854347D01*
X46262Y855558D01*
X45958Y856791D01*
X45730Y858039D01*
X45577Y859299D01*
X45500Y860565D01*
X45500Y861835D01*
X45500Y1361835D02*
X45577Y1363101D01*
X45730Y1364361D01*
X45958Y1365610D01*
X46262Y1366842D01*
X46640Y1368053D01*
X47090Y1369240D01*
X47611Y1370397D01*
X48200Y1371521D01*
X48857Y1372607D01*
X49578Y1373652D01*
X50361Y1374651D01*
X51202Y1375601D01*
X52099Y1376498D01*
X53049Y1377340D01*
X54048Y1378122D01*
X55093Y1378843D01*
X56179Y1379500D01*
X57303Y1380089D01*
X58460Y1380610D01*
X59647Y1381060D01*
X60858Y1381438D01*
X62091Y1381742D01*
X63339Y1381970D01*
X64599Y1382123D01*
X65865Y1382200D01*
X67135Y1382200D01*
X68401Y1382123D01*
X69661Y1381970D01*
X70910Y1381742D01*
X72142Y1381438D01*
X73353Y1381060D01*
X74540Y1380610D01*
X75697Y1380089D01*
X76821Y1379500D01*
X77907Y1378843D01*
X78952Y1378122D01*
X79951Y1377340D01*
X80901Y1376498D01*
X81798Y1375601D01*
X82640Y1374651D01*
X83422Y1373652D01*
X84143Y1372607D01*
X84800Y1371521D01*
X85389Y1370397D01*
X85910Y1369240D01*
X86360Y1368053D01*
X86738Y1366842D01*
X87042Y1365610D01*
X87270Y1364361D01*
X87423Y1363101D01*
X87500Y1361835D01*
X87500Y1360565D01*
X87423Y1359299D01*
X87270Y1358039D01*
X87042Y1356791D01*
X86738Y1355558D01*
X86360Y1354347D01*
X85910Y1353160D01*
X85389Y1352003D01*
X84800Y1350879D01*
X84143Y1349793D01*
X83422Y1348748D01*
X82640Y1347749D01*
X81798Y1346799D01*
X80901Y1345902D01*
X79951Y1345061D01*
X78952Y1344278D01*
X77907Y1343557D01*
X76821Y1342900D01*
X75697Y1342311D01*
X74540Y1341790D01*
X73353Y1341340D01*
X72142Y1340962D01*
X70910Y1340658D01*
X69661Y1340430D01*
X68401Y1340277D01*
X67135Y1340200D01*
X65865Y1340200D01*
X64599Y1340277D01*
X63339Y1340430D01*
X62091Y1340658D01*
X60858Y1340962D01*
X59647Y1341340D01*
X58460Y1341790D01*
X57303Y1342311D01*
X56179Y1342900D01*
X55093Y1343557D01*
X54048Y1344278D01*
X53049Y1345061D01*
X52099Y1345902D01*
X51202Y1346799D01*
X50361Y1347749D01*
X49578Y1348748D01*
X48857Y1349793D01*
X48200Y1350879D01*
X47611Y1352003D01*
X47090Y1353160D01*
X46640Y1354347D01*
X46262Y1355558D01*
X45958Y1356791D01*
X45730Y1358039D01*
X45577Y1359299D01*
X45500Y1360565D01*
X45500Y1361835D01*
X613000Y861835D02*
X613077Y863101D01*
X613230Y864361D01*
X613458Y865610D01*
X613762Y866842D01*
X614140Y868053D01*
X614590Y869240D01*
X615111Y870397D01*
X615700Y871521D01*
X616357Y872607D01*
X617078Y873652D01*
X617861Y874651D01*
X618702Y875601D01*
X619599Y876498D01*
X620549Y877340D01*
X621548Y878122D01*
X622593Y878843D01*
X623679Y879500D01*
X624803Y880089D01*
X625960Y880610D01*
X627147Y881060D01*
X628358Y881438D01*
X629591Y881742D01*
X630839Y881970D01*
X632099Y882123D01*
X633365Y882200D01*
X634635Y882200D01*
X635901Y882123D01*
X637161Y881970D01*
X638410Y881742D01*
X639642Y881438D01*
X640853Y881060D01*
X642040Y880610D01*
X643197Y880089D01*
X644321Y879500D01*
X645407Y878843D01*
X646452Y878122D01*
X647451Y877340D01*
X648401Y876498D01*
X649298Y875601D01*
X650140Y874651D01*
X650922Y873652D01*
X651643Y872607D01*
X652300Y871521D01*
X652889Y870397D01*
X653410Y869240D01*
X653860Y868053D01*
X654238Y866842D01*
X654542Y865610D01*
X654770Y864361D01*
X654923Y863101D01*
X655000Y861835D01*
X655000Y860565D01*
X654923Y859299D01*
X654770Y858039D01*
X654542Y856791D01*
X654238Y855558D01*
X653860Y854347D01*
X653410Y853160D01*
X652889Y852003D01*
X652300Y850879D01*
X651643Y849793D01*
X650922Y848748D01*
X650140Y847749D01*
X649298Y846799D01*
X648401Y845902D01*
X647451Y845061D01*
X646452Y844278D01*
X645407Y843557D01*
X644321Y842900D01*
X643197Y842311D01*
X642040Y841790D01*
X640853Y841340D01*
X639642Y840962D01*
X638410Y840658D01*
X637161Y840430D01*
X635901Y840277D01*
X634635Y840200D01*
X633365Y840200D01*
X632099Y840277D01*
X630839Y840430D01*
X629591Y840658D01*
X628358Y840962D01*
X627147Y841340D01*
X625960Y841790D01*
X624803Y842311D01*
X623679Y842900D01*
X622593Y843557D01*
X621548Y844278D01*
X620549Y845061D01*
X619599Y845902D01*
X618702Y846799D01*
X617861Y847749D01*
X617078Y848748D01*
X616357Y849793D01*
X615700Y850879D01*
X615111Y852003D01*
X614590Y853160D01*
X614140Y854347D01*
X613762Y855558D01*
X613458Y856791D01*
X613230Y858039D01*
X613077Y859299D01*
X613000Y860565D01*
X613000Y861835D01*
X613000Y1361835D02*
X613077Y1363101D01*
X613230Y1364361D01*
X613458Y1365610D01*
X613762Y1366842D01*
X614140Y1368053D01*
X614590Y1369240D01*
X615111Y1370397D01*
X615700Y1371521D01*
X616357Y1372607D01*
X617078Y1373652D01*
X617861Y1374651D01*
X618702Y1375601D01*
X619599Y1376498D01*
X620549Y1377340D01*
X621548Y1378122D01*
X622593Y1378843D01*
X623679Y1379500D01*
X624803Y1380089D01*
X625960Y1380610D01*
X627147Y1381060D01*
X628358Y1381438D01*
X629591Y1381742D01*
X630839Y1381970D01*
X632099Y1382123D01*
X633365Y1382200D01*
X634635Y1382200D01*
X635901Y1382123D01*
X637161Y1381970D01*
X638410Y1381742D01*
X639642Y1381438D01*
X640853Y1381060D01*
X642040Y1380610D01*
X643197Y1380089D01*
X644321Y1379500D01*
X645407Y1378843D01*
X646452Y1378122D01*
X647451Y1377340D01*
X648401Y1376498D01*
X649298Y1375601D01*
X650140Y1374651D01*
X650922Y1373652D01*
X651643Y1372607D01*
X652300Y1371521D01*
X652889Y1370397D01*
X653410Y1369240D01*
X653860Y1368053D01*
X654238Y1366842D01*
X654542Y1365610D01*
X654770Y1364361D01*
X654923Y1363101D01*
X655000Y1361835D01*
X655000Y1360565D01*
X654923Y1359299D01*
X654770Y1358039D01*
X654542Y1356791D01*
X654238Y1355558D01*
X653860Y1354347D01*
X653410Y1353160D01*
X652889Y1352003D01*
X652300Y1350879D01*
X651643Y1349793D01*
X650922Y1348748D01*
X650140Y1347749D01*
X649298Y1346799D01*
X648401Y1345902D01*
X647451Y1345061D01*
X646452Y1344278D01*
X645407Y1343557D01*
X644321Y1342900D01*
X643197Y1342311D01*
X642040Y1341790D01*
X640853Y1341340D01*
X639642Y1340962D01*
X638410Y1340658D01*
X637161Y1340430D01*
X635901Y1340277D01*
X634635Y1340200D01*
X633365Y1340200D01*
X632099Y1340277D01*
X630839Y1340430D01*
X629591Y1340658D01*
X628358Y1340962D01*
X627147Y1341340D01*
X625960Y1341790D01*
X624803Y1342311D01*
X623679Y1342900D01*
X622593Y1343557D01*
X621548Y1344278D01*
X620549Y1345061D01*
X619599Y1345902D01*
X618702Y1346799D01*
X617861Y1347749D01*
X617078Y1348748D01*
X616357Y1349793D01*
X615700Y1350879D01*
X615111Y1352003D01*
X614590Y1353160D01*
X614140Y1354347D01*
X613762Y1355558D01*
X613458Y1356791D01*
X613230Y1358039D01*
X613077Y1359299D01*
X613000Y1360565D01*
X613000Y1361835D01*
X70257Y2352900D02*
X71367Y2352827D01*
X72471Y2352682D01*
X73562Y2352465D01*
X74637Y2352177D01*
X75691Y2351819D01*
X76720Y2351393D01*
X77718Y2350901D01*
X78682Y2350344D01*
X79607Y2349726D01*
X80490Y2349048D01*
X81327Y2348314D01*
X82114Y2347527D01*
X82848Y2346690D01*
X83526Y2345807D01*
X84144Y2344882D01*
X84701Y2343918D01*
X85193Y2342920D01*
X85619Y2341891D01*
X85977Y2340837D01*
X86265Y2339762D01*
X86482Y2338671D01*
X86627Y2337567D01*
X86700Y2336457D01*
X86700Y2335343D01*
X86627Y2334233D01*
X86482Y2333129D01*
X86265Y2332038D01*
X85977Y2330963D01*
X85619Y2329909D01*
X85193Y2328880D01*
X84701Y2327882D01*
X84144Y2326918D01*
X83526Y2325993D01*
X82848Y2325110D01*
X82114Y2324273D01*
X81327Y2323486D01*
X80490Y2322752D01*
X79607Y2322074D01*
X78682Y2321456D01*
X77718Y2320899D01*
X76720Y2320407D01*
X75691Y2319981D01*
X74637Y2319623D01*
X73562Y2319335D01*
X72471Y2319118D01*
X71367Y2318973D01*
X70257Y2318900D01*
X69143Y2318900D01*
X68033Y2318973D01*
X66929Y2319118D01*
X65838Y2319335D01*
X64763Y2319623D01*
X63709Y2319981D01*
X62680Y2320407D01*
X61682Y2320899D01*
X60718Y2321456D01*
X59793Y2322074D01*
X58910Y2322752D01*
X58073Y2323486D01*
X57286Y2324273D01*
X56552Y2325110D01*
X55874Y2325993D01*
X55256Y2326918D01*
X54699Y2327882D01*
X54207Y2328880D01*
X53781Y2329909D01*
X53423Y2330963D01*
X53135Y2332038D01*
X52918Y2333129D01*
X52773Y2334233D01*
X52700Y2335343D01*
X52700Y2336457D01*
X52773Y2337567D01*
X52918Y2338671D01*
X53135Y2339762D01*
X53423Y2340837D01*
X53781Y2341891D01*
X54207Y2342920D01*
X54699Y2343918D01*
X55256Y2344882D01*
X55874Y2345807D01*
X56552Y2346690D01*
X57286Y2347527D01*
X58073Y2348314D01*
X58910Y2349048D01*
X59793Y2349726D01*
X60718Y2350344D01*
X61682Y2350901D01*
X62680Y2351393D01*
X63709Y2351819D01*
X64763Y2352177D01*
X65838Y2352465D01*
X66929Y2352682D01*
X68033Y2352827D01*
X69143Y2352900D01*
X70257Y2352900D01*
X284257Y1955900D02*
X285367Y1955827D01*
X286471Y1955682D01*
X287562Y1955465D01*
X288637Y1955177D01*
X289691Y1954819D01*
X290720Y1954393D01*
X291718Y1953901D01*
X292682Y1953344D01*
X293607Y1952726D01*
X294490Y1952048D01*
X295327Y1951314D01*
X296114Y1950527D01*
X296848Y1949690D01*
X297526Y1948807D01*
X298144Y1947882D01*
X298701Y1946918D01*
X299193Y1945920D01*
X299619Y1944891D01*
X299977Y1943837D01*
X300265Y1942762D01*
X300482Y1941671D01*
X300627Y1940567D01*
X300700Y1939457D01*
X300700Y1938343D01*
X300627Y1937233D01*
X300482Y1936129D01*
X300265Y1935038D01*
X299977Y1933963D01*
X299619Y1932909D01*
X299193Y1931880D01*
X298701Y1930882D01*
X298144Y1929918D01*
X297526Y1928993D01*
X296848Y1928110D01*
X296114Y1927273D01*
X295327Y1926486D01*
X294490Y1925752D01*
X293607Y1925074D01*
X292682Y1924456D01*
X291718Y1923899D01*
X290720Y1923407D01*
X289691Y1922981D01*
X288637Y1922623D01*
X287562Y1922335D01*
X286471Y1922118D01*
X285367Y1921973D01*
X284257Y1921900D01*
X283143Y1921900D01*
X282033Y1921973D01*
X280929Y1922118D01*
X279838Y1922335D01*
X278763Y1922623D01*
X277709Y1922981D01*
X276680Y1923407D01*
X275682Y1923899D01*
X274718Y1924456D01*
X273793Y1925074D01*
X272910Y1925752D01*
X272073Y1926486D01*
X271286Y1927273D01*
X270552Y1928110D01*
X269874Y1928993D01*
X269256Y1929918D01*
X268699Y1930882D01*
X268207Y1931880D01*
X267781Y1932909D01*
X267423Y1933963D01*
X267135Y1935038D01*
X266918Y1936129D01*
X266773Y1937233D01*
X266700Y1938343D01*
X266700Y1939457D01*
X266773Y1940567D01*
X266918Y1941671D01*
X267135Y1942762D01*
X267423Y1943837D01*
X267781Y1944891D01*
X268207Y1945920D01*
X268699Y1946918D01*
X269256Y1947882D01*
X269874Y1948807D01*
X270552Y1949690D01*
X271286Y1950527D01*
X272073Y1951314D01*
X272910Y1952048D01*
X273793Y1952726D01*
X274718Y1953344D01*
X275682Y1953901D01*
X276680Y1954393D01*
X277709Y1954819D01*
X278763Y1955177D01*
X279838Y1955465D01*
X280929Y1955682D01*
X282033Y1955827D01*
X283143Y1955900D01*
X284257Y1955900D01*
X407300Y99827D02*
X407225Y98684D01*
X407076Y97548D01*
X406852Y96424D01*
X406555Y95317D01*
X406187Y94232D01*
X405749Y93174D01*
X405242Y92146D01*
X404669Y91154D01*
X404032Y90201D01*
X403335Y89292D01*
X402579Y88431D01*
X401769Y87621D01*
X400908Y86865D01*
X399999Y86168D01*
X399046Y85531D01*
X398054Y84958D01*
X397026Y84451D01*
X395968Y84013D01*
X394883Y83645D01*
X393776Y83348D01*
X392652Y83125D01*
X391516Y82975D01*
X390373Y82900D01*
X389227Y82900D01*
X388084Y82975D01*
X386948Y83125D01*
X385824Y83348D01*
X384717Y83645D01*
X383632Y84013D01*
X382574Y84451D01*
X381546Y84958D01*
X380554Y85531D01*
X379601Y86168D01*
X378692Y86865D01*
X377831Y87621D01*
X377021Y88431D01*
X376265Y89292D01*
X375568Y90201D01*
X374931Y91154D01*
X374358Y92146D01*
X373851Y93174D01*
X373413Y94232D01*
X373045Y95317D01*
X372748Y96424D01*
X372525Y97548D01*
X372375Y98684D01*
X372300Y99827D01*
X372300Y100973D01*
X372375Y102116D01*
X372525Y103252D01*
X372748Y104376D01*
X373045Y105483D01*
X373413Y106568D01*
X373851Y107626D01*
X374358Y108654D01*
X374931Y109646D01*
X375568Y110599D01*
X376265Y111508D01*
X377021Y112369D01*
X377831Y113179D01*
X378692Y113935D01*
X379601Y114632D01*
X380554Y115269D01*
X381546Y115842D01*
X382574Y116349D01*
X383632Y116787D01*
X384717Y117155D01*
X385824Y117452D01*
X386948Y117676D01*
X388084Y117825D01*
X389227Y117900D01*
X390373Y117900D01*
X391516Y117825D01*
X392652Y117676D01*
X393776Y117452D01*
X394883Y117155D01*
X395968Y116787D01*
X397026Y116349D01*
X398054Y115842D01*
X399046Y115269D01*
X399999Y114632D01*
X400908Y113935D01*
X401769Y113179D01*
X402579Y112369D01*
X403335Y111508D01*
X404032Y110599D01*
X404669Y109646D01*
X405242Y108654D01*
X405749Y107626D01*
X406187Y106568D01*
X406555Y105483D01*
X406852Y104376D01*
X407076Y103252D01*
X407225Y102116D01*
X407300Y100973D01*
X407300Y99827D01*
X407300Y607827D02*
X407225Y606684D01*
X407076Y605548D01*
X406852Y604424D01*
X406555Y603317D01*
X406187Y602232D01*
X405749Y601174D01*
X405242Y600146D01*
X404669Y599154D01*
X404032Y598201D01*
X403335Y597292D01*
X402579Y596431D01*
X401769Y595621D01*
X400908Y594865D01*
X399999Y594168D01*
X399046Y593531D01*
X398054Y592958D01*
X397026Y592451D01*
X395968Y592013D01*
X394883Y591645D01*
X393776Y591348D01*
X392652Y591125D01*
X391516Y590975D01*
X390373Y590900D01*
X389227Y590900D01*
X388084Y590975D01*
X386948Y591125D01*
X385824Y591348D01*
X384717Y591645D01*
X383632Y592013D01*
X382574Y592451D01*
X381546Y592958D01*
X380554Y593531D01*
X379601Y594168D01*
X378692Y594865D01*
X377831Y595621D01*
X377021Y596431D01*
X376265Y597292D01*
X375568Y598201D01*
X374931Y599154D01*
X374358Y600146D01*
X373851Y601174D01*
X373413Y602232D01*
X373045Y603317D01*
X372748Y604424D01*
X372525Y605548D01*
X372375Y606684D01*
X372300Y607827D01*
X372300Y608973D01*
X372375Y610116D01*
X372525Y611252D01*
X372748Y612376D01*
X373045Y613483D01*
X373413Y614568D01*
X373851Y615626D01*
X374358Y616654D01*
X374931Y617646D01*
X375568Y618599D01*
X376265Y619508D01*
X377021Y620369D01*
X377831Y621179D01*
X378692Y621935D01*
X379601Y622632D01*
X380554Y623269D01*
X381546Y623842D01*
X382574Y624349D01*
X383632Y624787D01*
X384717Y625155D01*
X385824Y625452D01*
X386948Y625676D01*
X388084Y625825D01*
X389227Y625900D01*
X390373Y625900D01*
X391516Y625825D01*
X392652Y625676D01*
X393776Y625452D01*
X394883Y625155D01*
X395968Y624787D01*
X397026Y624349D01*
X398054Y623842D01*
X399046Y623269D01*
X399999Y622632D01*
X400908Y621935D01*
X401769Y621179D01*
X402579Y620369D01*
X403335Y619508D01*
X404032Y618599D01*
X404669Y617646D01*
X405242Y616654D01*
X405749Y615626D01*
X406187Y614568D01*
X406555Y613483D01*
X406852Y612376D01*
X407076Y611252D01*
X407225Y610116D01*
X407300Y608973D01*
X407300Y607827D01*
X1474300Y607827D02*
X1474225Y606684D01*
X1474076Y605548D01*
X1473852Y604424D01*
X1473555Y603317D01*
X1473187Y602232D01*
X1472749Y601174D01*
X1472242Y600146D01*
X1471669Y599154D01*
X1471032Y598201D01*
X1470335Y597292D01*
X1469579Y596431D01*
X1468769Y595621D01*
X1467908Y594865D01*
X1466999Y594168D01*
X1466046Y593531D01*
X1465054Y592958D01*
X1464026Y592451D01*
X1462968Y592013D01*
X1461883Y591645D01*
X1460776Y591348D01*
X1459652Y591125D01*
X1458516Y590975D01*
X1457373Y590900D01*
X1456227Y590900D01*
X1455084Y590975D01*
X1453948Y591125D01*
X1452824Y591348D01*
X1451717Y591645D01*
X1450632Y592013D01*
X1449574Y592451D01*
X1448546Y592958D01*
X1447554Y593531D01*
X1446601Y594168D01*
X1445692Y594865D01*
X1444831Y595621D01*
X1444021Y596431D01*
X1443265Y597292D01*
X1442568Y598201D01*
X1441931Y599154D01*
X1441358Y600146D01*
X1440851Y601174D01*
X1440413Y602232D01*
X1440045Y603317D01*
X1439748Y604424D01*
X1439525Y605548D01*
X1439375Y606684D01*
X1439300Y607827D01*
X1439300Y608973D01*
X1439375Y610116D01*
X1439525Y611252D01*
X1439748Y612376D01*
X1440045Y613483D01*
X1440413Y614568D01*
X1440851Y615626D01*
X1441358Y616654D01*
X1441931Y617646D01*
X1442568Y618599D01*
X1443265Y619508D01*
X1444021Y620369D01*
X1444831Y621179D01*
X1445692Y621935D01*
X1446601Y622632D01*
X1447554Y623269D01*
X1448546Y623842D01*
X1449574Y624349D01*
X1450632Y624787D01*
X1451717Y625155D01*
X1452824Y625452D01*
X1453948Y625676D01*
X1455084Y625825D01*
X1456227Y625900D01*
X1457373Y625900D01*
X1458516Y625825D01*
X1459652Y625676D01*
X1460776Y625452D01*
X1461883Y625155D01*
X1462968Y624787D01*
X1464026Y624349D01*
X1465054Y623842D01*
X1466046Y623269D01*
X1466999Y622632D01*
X1467908Y621935D01*
X1468769Y621179D01*
X1469579Y620369D01*
X1470335Y619508D01*
X1471032Y618599D01*
X1471669Y617646D01*
X1472242Y616654D01*
X1472749Y615626D01*
X1473187Y614568D01*
X1473555Y613483D01*
X1473852Y612376D01*
X1474076Y611252D01*
X1474225Y610116D01*
X1474300Y608973D01*
X1474300Y607827D01*
X1474300Y99327D02*
X1474225Y98184D01*
X1474076Y97048D01*
X1473852Y95924D01*
X1473555Y94817D01*
X1473187Y93732D01*
X1472749Y92674D01*
X1472242Y91646D01*
X1471669Y90654D01*
X1471032Y89701D01*
X1470335Y88792D01*
X1469579Y87931D01*
X1468769Y87121D01*
X1467908Y86365D01*
X1466999Y85668D01*
X1466046Y85031D01*
X1465054Y84458D01*
X1464026Y83951D01*
X1462968Y83513D01*
X1461883Y83145D01*
X1460776Y82848D01*
X1459652Y82625D01*
X1458516Y82475D01*
X1457373Y82400D01*
X1456227Y82400D01*
X1455084Y82475D01*
X1453948Y82625D01*
X1452824Y82848D01*
X1451717Y83145D01*
X1450632Y83513D01*
X1449574Y83951D01*
X1448546Y84458D01*
X1447554Y85031D01*
X1446601Y85668D01*
X1445692Y86365D01*
X1444831Y87121D01*
X1444021Y87931D01*
X1443265Y88792D01*
X1442568Y89701D01*
X1441931Y90654D01*
X1441358Y91646D01*
X1440851Y92674D01*
X1440413Y93732D01*
X1440045Y94817D01*
X1439748Y95924D01*
X1439525Y97048D01*
X1439375Y98184D01*
X1439300Y99327D01*
X1439300Y100473D01*
X1439375Y101616D01*
X1439525Y102752D01*
X1439748Y103876D01*
X1440045Y104983D01*
X1440413Y106068D01*
X1440851Y107126D01*
X1441358Y108154D01*
X1441931Y109146D01*
X1442568Y110099D01*
X1443265Y111008D01*
X1444021Y111869D01*
X1444831Y112679D01*
X1445692Y113435D01*
X1446601Y114132D01*
X1447554Y114769D01*
X1448546Y115342D01*
X1449574Y115849D01*
X1450632Y116287D01*
X1451717Y116655D01*
X1452824Y116952D01*
X1453948Y117176D01*
X1455084Y117325D01*
X1456227Y117400D01*
X1457373Y117400D01*
X1458516Y117325D01*
X1459652Y117176D01*
X1460776Y116952D01*
X1461883Y116655D01*
X1462968Y116287D01*
X1464026Y115849D01*
X1465054Y115342D01*
X1466046Y114769D01*
X1466999Y114132D01*
X1467908Y113435D01*
X1468769Y112679D01*
X1469579Y111869D01*
X1470335Y111008D01*
X1471032Y110099D01*
X1471669Y109146D01*
X1472242Y108154D01*
X1472749Y107126D01*
X1473187Y106068D01*
X1473555Y104983D01*
X1473852Y103876D01*
X1474076Y102752D01*
X1474225Y101616D01*
X1474300Y100473D01*
X1474300Y99327D01*
M02*
