G04 EAGLE Gerber RS-274X export*
G75*
%MOMM*%
%FSLAX34Y34*%
%LPD*%
%INSolderpaste Top*%
%IPPOS*%
%AMOC8*
5,1,8,0,0,1.08239X$1,22.5*%
G01*
%ADD10R,1.800000X1.600000*%
%ADD11R,1.600000X1.800000*%
%ADD12R,5.040000X3.810000*%
%ADD13R,3.810000X5.040000*%
%ADD14R,1.200000X0.600000*%
%ADD15R,0.600000X1.200000*%
%ADD16R,1.803000X1.600000*%
%ADD17R,1.600000X1.803000*%
%ADD18R,5.800000X6.200000*%
%ADD19R,1.600000X3.000000*%
%ADD20R,9.750000X12.200000*%
%ADD21R,3.500000X1.600000*%
%ADD22R,1.905000X0.640000*%
%ADD23R,0.800000X1.400000*%
%ADD24R,6.200000X5.800000*%
%ADD25R,3.000000X1.600000*%
%ADD26R,3.300000X2.400000*%
%ADD27R,1.500000X0.600000*%
%ADD28R,1.680000X2.120000*%
%ADD29R,1.400000X0.800000*%


D10*
X1559400Y278600D03*
X1559400Y306600D03*
X1709400Y818900D03*
X1709400Y846900D03*
X1962600Y649400D03*
X1962600Y677400D03*
X1709400Y623900D03*
X1709400Y651900D03*
D11*
X1649600Y1903400D03*
X1677600Y1903400D03*
X1620400Y1787400D03*
X1648400Y1787400D03*
D10*
X1757400Y282800D03*
X1757400Y254800D03*
X2198400Y284000D03*
X2198400Y256000D03*
X1778400Y1609400D03*
X1778400Y1637400D03*
X1873600Y2417800D03*
X1873600Y2445800D03*
D11*
X2028600Y2431400D03*
X2056600Y2431400D03*
D10*
X1962600Y1031500D03*
X1962600Y1059500D03*
X1872600Y2315400D03*
X1872600Y2343400D03*
D11*
X2028200Y2329400D03*
X2056200Y2329400D03*
D10*
X1709600Y1006000D03*
X1709600Y1034000D03*
X792400Y1907800D03*
X792400Y1879800D03*
X834400Y1922000D03*
X834400Y1894000D03*
X1023400Y1916200D03*
X1023400Y1888200D03*
X495000Y1977500D03*
X495000Y1949500D03*
X712400Y2003000D03*
X712400Y1975000D03*
X1962600Y844500D03*
X1962600Y872500D03*
D12*
X109900Y399800D03*
X181700Y399800D03*
D13*
X2321600Y783100D03*
X2321600Y854900D03*
D12*
X1726100Y910200D03*
X1654300Y910200D03*
D14*
X1623240Y1840300D03*
X1623240Y1859300D03*
X1649360Y1840300D03*
X1649360Y1849800D03*
X1649360Y1859300D03*
D15*
X2263900Y1584240D03*
X2244900Y1584240D03*
X2263900Y1610360D03*
X2254400Y1610360D03*
X2244900Y1610360D03*
D16*
X1761400Y1410120D03*
X1761400Y1381680D03*
D17*
X1962980Y949400D03*
X1991420Y949400D03*
X2171220Y1541600D03*
X2142780Y1541600D03*
D16*
X744400Y1908020D03*
X744400Y1879580D03*
X768400Y1936120D03*
X768400Y1907680D03*
X495000Y2003380D03*
X495000Y2031820D03*
D17*
X494820Y2054600D03*
X466380Y2054600D03*
D16*
X459400Y2005620D03*
X459400Y1977180D03*
X459400Y1949120D03*
X459400Y1920680D03*
D17*
X1542980Y1880400D03*
X1571420Y1880400D03*
X1542780Y1857400D03*
X1571220Y1857400D03*
X1695620Y951600D03*
X1667180Y951600D03*
D16*
X1962600Y818420D03*
X1962600Y789980D03*
D17*
X1963380Y763400D03*
X1991820Y763400D03*
D16*
X1962600Y623820D03*
X1962600Y595380D03*
D17*
X1962980Y568400D03*
X1991420Y568400D03*
X1649380Y1880400D03*
X1677820Y1880400D03*
X1620580Y1813400D03*
X1649020Y1813400D03*
X1704380Y103400D03*
X1732820Y103400D03*
X2169380Y207400D03*
X2197820Y207400D03*
X2266180Y345400D03*
X2294620Y345400D03*
D16*
X2334600Y1337980D03*
X2334600Y1366420D03*
X1729600Y1381880D03*
X1729600Y1410320D03*
D17*
X2240220Y1448600D03*
X2211780Y1448600D03*
D16*
X2164600Y1337580D03*
X2164600Y1366020D03*
D17*
X2069820Y1448100D03*
X2041380Y1448100D03*
D16*
X1991900Y1688020D03*
X1991900Y1659580D03*
X1991900Y1764220D03*
X1991900Y1735780D03*
D17*
X2272420Y1903100D03*
X2243980Y1903100D03*
X2351620Y1903100D03*
X2323180Y1903100D03*
X2230180Y1750900D03*
X2258620Y1750900D03*
X2309980Y1751900D03*
X2338420Y1751900D03*
X1774220Y1916600D03*
X1745780Y1916600D03*
X1785980Y1410400D03*
X1814420Y1410400D03*
X1774220Y1865600D03*
X1745780Y1865600D03*
X2326220Y1554100D03*
X2297780Y1554100D03*
D16*
X2263900Y1507420D03*
X2263900Y1478980D03*
X2219900Y1692620D03*
X2219900Y1664180D03*
D17*
X1774220Y1891600D03*
X1745780Y1891600D03*
X1977180Y2444900D03*
X2005620Y2444900D03*
X2214980Y1555900D03*
X2243420Y1555900D03*
D16*
X2213900Y1610220D03*
X2213900Y1581780D03*
D17*
X2005420Y2419100D03*
X1976980Y2419100D03*
X1954380Y2499900D03*
X1982820Y2499900D03*
X2130220Y1224600D03*
X2101780Y1224600D03*
X1954180Y2475900D03*
X1982620Y2475900D03*
X1976980Y2341900D03*
X2005420Y2341900D03*
X2005220Y2317100D03*
X1976780Y2317100D03*
X1953580Y2391900D03*
X1982020Y2391900D03*
X1953380Y2369900D03*
X1981820Y2369900D03*
D16*
X2329100Y2154180D03*
X2329100Y2182620D03*
X2172900Y2205020D03*
X2172900Y2176580D03*
X2330100Y2071780D03*
X2330100Y2100220D03*
X2172900Y2123420D03*
X2172900Y2094980D03*
X2294600Y1106580D03*
X2294600Y1135020D03*
D17*
X2202620Y1228600D03*
X2174180Y1228600D03*
D16*
X1962400Y1005820D03*
X1962400Y977380D03*
D18*
X2188500Y1114600D03*
D19*
X2165650Y1186400D03*
X2211350Y1186400D03*
D20*
X1816350Y1005800D03*
D21*
X1919100Y1031200D03*
X1919100Y1005800D03*
X1919100Y980400D03*
D18*
X2147500Y1436600D03*
D19*
X2124650Y1508400D03*
X2170350Y1508400D03*
D22*
X865700Y1920650D03*
X865700Y1907950D03*
X865700Y1895250D03*
X865700Y1882550D03*
X973300Y1882550D03*
X973300Y1895250D03*
X973300Y1907950D03*
X973300Y1920650D03*
D20*
X637450Y2003200D03*
D21*
X534700Y1977800D03*
X534700Y2003200D03*
X534700Y2028600D03*
D20*
X1816350Y818800D03*
D21*
X1919100Y844200D03*
X1919100Y818800D03*
X1919100Y793400D03*
D20*
X1816350Y623800D03*
D21*
X1919100Y649200D03*
X1919100Y623800D03*
X1919100Y598400D03*
D18*
X1718500Y207400D03*
D19*
X1741350Y135600D03*
X1695650Y135600D03*
D18*
X2301500Y463400D03*
D19*
X2324350Y391600D03*
X2278650Y391600D03*
D23*
X2304200Y1383300D03*
X2278800Y1383300D03*
X2278800Y1322300D03*
X2304200Y1322300D03*
D18*
X2234500Y1345600D03*
D19*
X2211650Y1417400D03*
X2257350Y1417400D03*
D23*
X2133400Y1382300D03*
X2108000Y1382300D03*
X2108000Y1321300D03*
X2133400Y1321300D03*
D18*
X2063600Y1344300D03*
D19*
X2040750Y1416100D03*
X2086450Y1416100D03*
D18*
X2243400Y1852700D03*
D19*
X2266250Y1780900D03*
X2220550Y1780900D03*
D18*
X2323400Y1852700D03*
D19*
X2346250Y1780900D03*
X2300550Y1780900D03*
D24*
X2325700Y1687600D03*
D25*
X2253900Y1664750D03*
X2253900Y1710450D03*
D18*
X2320600Y1449300D03*
D19*
X2297750Y1521100D03*
X2343450Y1521100D03*
D26*
X275200Y400100D03*
X275200Y466100D03*
D27*
X1898700Y2450650D03*
X1898700Y2437950D03*
X1898700Y2425250D03*
X1898700Y2412550D03*
X1953700Y2412550D03*
X1953700Y2425250D03*
X1953700Y2437950D03*
X1953700Y2450650D03*
X1898700Y2348650D03*
X1898700Y2335950D03*
X1898700Y2323250D03*
X1898700Y2310550D03*
X1953700Y2310550D03*
X1953700Y2323250D03*
X1953700Y2335950D03*
X1953700Y2348650D03*
D24*
X2228300Y2176400D03*
D25*
X2300100Y2199250D03*
X2300100Y2153550D03*
D24*
X2227300Y2094400D03*
D25*
X2299100Y2117250D03*
X2299100Y2071550D03*
D28*
X1662200Y1325000D03*
X1662200Y1285000D03*
D29*
X1836700Y1410800D03*
X1836700Y1385400D03*
X1897700Y1385400D03*
X1897700Y1410800D03*
D18*
X2078500Y1114600D03*
D19*
X2055650Y1186400D03*
X2101350Y1186400D03*
D28*
X1665200Y1176300D03*
X1665200Y1136300D03*
D23*
X2259000Y1151300D03*
X2233600Y1151300D03*
X2233600Y1090300D03*
X2259000Y1090300D03*
D12*
X2326900Y284000D03*
X2255100Y284000D03*
D28*
X1062000Y1665000D03*
X1062000Y1625000D03*
D13*
X2228000Y854900D03*
X2228000Y783100D03*
D17*
X1774220Y1815000D03*
X1745780Y1815000D03*
D13*
X385000Y1929100D03*
X385000Y2000900D03*
D12*
X697100Y1805000D03*
X768900Y1805000D03*
M02*
