G04 EAGLE Gerber RS-274X export*
G75*
%MOMM*%
%FSLAX34Y34*%
%LPD*%
%INSoldermask Top*%
%IPPOS*%
%AMOC8*
5,1,8,0,0,1.08239X$1,22.5*%
G01*
%ADD10C,3.603200*%
%ADD11R,2.003200X1.803200*%
%ADD12C,1.203200*%
%ADD13C,2.603200*%
%ADD14R,1.803200X2.003200*%
%ADD15C,2.553200*%
%ADD16C,3.003200*%
%ADD17C,1.711200*%
%ADD18R,5.243200X4.013200*%
%ADD19R,4.013200X5.243200*%
%ADD20R,1.403200X0.803200*%
%ADD21R,0.803200X1.403200*%
%ADD22C,4.403200*%
%ADD23C,1.511200*%
%ADD24R,2.006200X1.803200*%
%ADD25R,1.803200X2.006200*%
%ADD26C,2.453200*%
%ADD27C,1.853200*%
%ADD28P,1.869504X8X292.500000*%
%ADD29C,3.703200*%
%ADD30C,3.203200*%
%ADD31R,6.003200X6.403200*%
%ADD32R,1.803200X3.203200*%
%ADD33R,9.953200X12.403200*%
%ADD34R,3.703200X1.803200*%
%ADD35C,1.611200*%
%ADD36R,2.108200X0.843200*%
%ADD37C,2.003200*%
%ADD38C,2.903200*%
%ADD39R,1.003200X1.603200*%
%ADD40R,6.403200X6.003200*%
%ADD41R,3.203200X1.803200*%
%ADD42C,2.153200*%
%ADD43R,3.503200X2.603200*%
%ADD44C,1.676400*%
%ADD45R,1.703200X0.803200*%
%ADD46R,1.883200X2.323200*%
%ADD47R,1.603200X1.003200*%
%ADD48C,1.209600*%
%ADD49C,0.959600*%
%ADD50C,1.703200*%


D10*
X2320000Y2480000D03*
X2440000Y100000D03*
X100000Y100000D03*
X100000Y2440000D03*
D11*
X1559400Y278600D03*
X1559400Y306600D03*
D12*
X37600Y644000D03*
X55600Y644000D03*
X37600Y479000D03*
X55600Y479000D03*
D13*
X137600Y516000D03*
X137600Y539000D03*
X137600Y584000D03*
X137600Y607000D03*
D11*
X1709400Y818900D03*
X1709400Y846900D03*
X1962600Y649400D03*
X1962600Y677400D03*
X1709400Y623900D03*
X1709400Y651900D03*
D14*
X1649600Y1903400D03*
X1677600Y1903400D03*
X1620400Y1787400D03*
X1648400Y1787400D03*
D11*
X1757400Y282800D03*
X1757400Y254800D03*
X2198400Y284000D03*
X2198400Y256000D03*
X1778400Y1609400D03*
X1778400Y1637400D03*
X1873600Y2417800D03*
X1873600Y2445800D03*
D14*
X2028600Y2431400D03*
X2056600Y2431400D03*
D11*
X1962600Y1031500D03*
X1962600Y1059500D03*
D12*
X2497000Y667500D03*
X2479000Y667500D03*
X2497000Y832500D03*
X2479000Y832500D03*
D13*
X2397000Y795500D03*
X2397000Y772500D03*
X2397000Y727500D03*
X2397000Y704500D03*
D11*
X1872600Y2315400D03*
X1872600Y2343400D03*
D14*
X2028200Y2329400D03*
X2056200Y2329400D03*
D11*
X1709600Y1006000D03*
X1709600Y1034000D03*
D15*
X2450700Y975000D03*
X2450700Y1125000D03*
D16*
X2490700Y975000D03*
X2490700Y1125000D03*
D17*
X2438000Y1050000D03*
X2438000Y1022750D03*
X2438000Y1077250D03*
X2463400Y1029250D03*
X2463400Y1050000D03*
X2463400Y1070750D03*
X2412600Y1035000D03*
X2412600Y1065000D03*
D12*
X2497000Y167500D03*
X2479000Y167500D03*
X2497000Y332500D03*
X2479000Y332500D03*
D13*
X2397000Y295500D03*
X2397000Y272500D03*
X2397000Y227500D03*
X2397000Y204500D03*
D11*
X792400Y1907800D03*
X792400Y1879800D03*
D15*
X2450700Y2325000D03*
X2450700Y2475000D03*
D16*
X2490700Y2325000D03*
X2490700Y2475000D03*
D17*
X2438000Y2400000D03*
X2438000Y2372750D03*
X2438000Y2427250D03*
X2463400Y2379250D03*
X2463400Y2400000D03*
X2463400Y2420750D03*
X2412600Y2385000D03*
X2412600Y2415000D03*
D12*
X2497000Y417500D03*
X2479000Y417500D03*
X2497000Y582500D03*
X2479000Y582500D03*
D13*
X2397000Y545500D03*
X2397000Y522500D03*
X2397000Y477500D03*
X2397000Y454500D03*
D11*
X834400Y1922000D03*
X834400Y1894000D03*
D15*
X2450700Y2100000D03*
X2450700Y2250000D03*
D16*
X2490700Y2100000D03*
X2490700Y2250000D03*
D17*
X2438000Y2175000D03*
X2438000Y2147750D03*
X2438000Y2202250D03*
X2463400Y2154250D03*
X2463400Y2175000D03*
X2463400Y2195750D03*
X2412600Y2160000D03*
X2412600Y2190000D03*
D11*
X1023400Y1916200D03*
X1023400Y1888200D03*
D15*
X2450700Y1200000D03*
X2450700Y1350000D03*
D16*
X2490700Y1200000D03*
X2490700Y1350000D03*
D17*
X2438000Y1275000D03*
X2438000Y1247750D03*
X2438000Y1302250D03*
X2463400Y1254250D03*
X2463400Y1275000D03*
X2463400Y1295750D03*
X2412600Y1260000D03*
X2412600Y1290000D03*
D11*
X495000Y1977500D03*
X495000Y1949500D03*
D15*
X2450700Y1425000D03*
X2450700Y1575000D03*
D16*
X2490700Y1425000D03*
X2490700Y1575000D03*
D17*
X2438000Y1500000D03*
X2438000Y1472750D03*
X2438000Y1527250D03*
X2463400Y1479250D03*
X2463400Y1500000D03*
X2463400Y1520750D03*
X2412600Y1485000D03*
X2412600Y1515000D03*
D11*
X712400Y2003000D03*
X712400Y1975000D03*
D15*
X2450700Y1875000D03*
X2450700Y2025000D03*
D16*
X2490700Y1875000D03*
X2490700Y2025000D03*
D17*
X2438000Y1950000D03*
X2438000Y1922750D03*
X2438000Y1977250D03*
X2463400Y1929250D03*
X2463400Y1950000D03*
X2463400Y1970750D03*
X2412600Y1935000D03*
X2412600Y1965000D03*
D11*
X1962600Y844500D03*
X1962600Y872500D03*
D15*
X2450700Y1650000D03*
X2450700Y1800000D03*
D16*
X2490700Y1650000D03*
X2490700Y1800000D03*
D17*
X2438000Y1725000D03*
X2438000Y1697750D03*
X2438000Y1752250D03*
X2463400Y1704250D03*
X2463400Y1725000D03*
X2463400Y1745750D03*
X2412600Y1710000D03*
X2412600Y1740000D03*
D18*
X109900Y399800D03*
X181700Y399800D03*
D19*
X2321600Y783100D03*
X2321600Y854900D03*
D18*
X1726100Y910200D03*
X1654300Y910200D03*
D20*
X1623240Y1840300D03*
X1623240Y1859300D03*
X1649360Y1840300D03*
X1649360Y1849800D03*
X1649360Y1859300D03*
D21*
X2263900Y1584240D03*
X2244900Y1584240D03*
X2263900Y1610360D03*
X2254400Y1610360D03*
X2244900Y1610360D03*
D22*
X1366500Y861200D03*
X1366500Y1361200D03*
X66500Y861200D03*
X66500Y1361200D03*
X634000Y861200D03*
X634000Y1361200D03*
D23*
X1536500Y1022300D03*
X1536500Y1047700D03*
X1536500Y1073100D03*
X1536500Y1098500D03*
X1536500Y1123900D03*
X1536500Y1149300D03*
X1536500Y1174700D03*
X1536500Y1200100D03*
X317300Y1531200D03*
X291900Y1531200D03*
X241900Y1531200D03*
X216500Y1531200D03*
D24*
X1761400Y1410120D03*
X1761400Y1381680D03*
D25*
X1962980Y949400D03*
X1991420Y949400D03*
X2171220Y1541600D03*
X2142780Y1541600D03*
D24*
X744400Y1908020D03*
X744400Y1879580D03*
X768400Y1936120D03*
X768400Y1907680D03*
X495000Y2003380D03*
X495000Y2031820D03*
D25*
X494820Y2054600D03*
X466380Y2054600D03*
D24*
X459400Y2005620D03*
X459400Y1977180D03*
X459400Y1949120D03*
X459400Y1920680D03*
D25*
X1542980Y1880400D03*
X1571420Y1880400D03*
X1542780Y1857400D03*
X1571220Y1857400D03*
X1695620Y951600D03*
X1667180Y951600D03*
D24*
X1962600Y818420D03*
X1962600Y789980D03*
D25*
X1963380Y763400D03*
X1991820Y763400D03*
D24*
X1962600Y623820D03*
X1962600Y595380D03*
D25*
X1962980Y568400D03*
X1991420Y568400D03*
X1649380Y1880400D03*
X1677820Y1880400D03*
X1620580Y1813400D03*
X1649020Y1813400D03*
X1704380Y103400D03*
X1732820Y103400D03*
X2169380Y207400D03*
X2197820Y207400D03*
X2266180Y345400D03*
X2294620Y345400D03*
D24*
X2334600Y1337980D03*
X2334600Y1366420D03*
X1729600Y1381880D03*
X1729600Y1410320D03*
D25*
X2240220Y1448600D03*
X2211780Y1448600D03*
D24*
X2164600Y1337580D03*
X2164600Y1366020D03*
D25*
X2069820Y1448100D03*
X2041380Y1448100D03*
D24*
X1991900Y1688020D03*
X1991900Y1659580D03*
X1991900Y1764220D03*
X1991900Y1735780D03*
D25*
X2272420Y1903100D03*
X2243980Y1903100D03*
X2351620Y1903100D03*
X2323180Y1903100D03*
X2230180Y1750900D03*
X2258620Y1750900D03*
X2309980Y1751900D03*
X2338420Y1751900D03*
X1774220Y1916600D03*
X1745780Y1916600D03*
X1785980Y1410400D03*
X1814420Y1410400D03*
X1774220Y1865600D03*
X1745780Y1865600D03*
X2326220Y1554100D03*
X2297780Y1554100D03*
D24*
X2263900Y1507420D03*
X2263900Y1478980D03*
X2219900Y1692620D03*
X2219900Y1664180D03*
D25*
X1774220Y1891600D03*
X1745780Y1891600D03*
X1977180Y2444900D03*
X2005620Y2444900D03*
X2214980Y1555900D03*
X2243420Y1555900D03*
D24*
X2213900Y1610220D03*
X2213900Y1581780D03*
D25*
X2005420Y2419100D03*
X1976980Y2419100D03*
X1954380Y2499900D03*
X1982820Y2499900D03*
X2130220Y1224600D03*
X2101780Y1224600D03*
X1954180Y2475900D03*
X1982620Y2475900D03*
X1976980Y2341900D03*
X2005420Y2341900D03*
X2005220Y2317100D03*
X1976780Y2317100D03*
X1953580Y2391900D03*
X1982020Y2391900D03*
X1953380Y2369900D03*
X1981820Y2369900D03*
D24*
X2329100Y2154180D03*
X2329100Y2182620D03*
X2172900Y2205020D03*
X2172900Y2176580D03*
X2330100Y2071780D03*
X2330100Y2100220D03*
X2172900Y2123420D03*
X2172900Y2094980D03*
X2294600Y1106580D03*
X2294600Y1135020D03*
D25*
X2202620Y1228600D03*
X2174180Y1228600D03*
D10*
X69700Y2335900D03*
X283700Y1938900D03*
D26*
X69700Y1938900D03*
X283700Y2335900D03*
D24*
X1962400Y1005820D03*
X1962400Y977380D03*
D27*
X2184900Y2430200D03*
X2134900Y2430200D03*
X2184900Y2480200D03*
X2134900Y2480200D03*
D28*
X2227400Y2355700D03*
X2227400Y2330300D03*
X2227400Y2304900D03*
X2227400Y2279500D03*
X2227400Y2254100D03*
X2252800Y2355700D03*
X2252800Y2330300D03*
X2252800Y2304900D03*
X2252800Y2279500D03*
X2252800Y2254100D03*
D29*
X389800Y100400D03*
X389800Y608400D03*
X1456800Y608400D03*
X1456800Y99900D03*
D30*
X389800Y481400D03*
X389800Y379800D03*
D17*
X389800Y278200D03*
X389800Y240100D03*
D30*
X1456800Y176900D03*
X1456800Y240100D03*
X1456800Y303600D03*
X1456800Y405200D03*
X1456800Y468700D03*
X1456800Y532200D03*
D17*
X1380400Y621100D03*
X1342300Y621100D03*
X1304200Y621100D03*
X1266100Y621100D03*
X1228000Y621100D03*
X1189900Y621100D03*
D31*
X2188500Y1114600D03*
D32*
X2165650Y1186400D03*
X2211350Y1186400D03*
D33*
X1816350Y1005800D03*
D34*
X1919100Y1031200D03*
X1919100Y1005800D03*
X1919100Y980400D03*
D35*
X989600Y1625000D03*
X839600Y1625000D03*
X789600Y1625000D03*
X739600Y1625000D03*
X739600Y1700000D03*
X789600Y1700000D03*
X839600Y1700000D03*
X989600Y1700000D03*
D31*
X2147500Y1436600D03*
D32*
X2124650Y1508400D03*
X2170350Y1508400D03*
D36*
X865700Y1920650D03*
X865700Y1907950D03*
X865700Y1895250D03*
X865700Y1882550D03*
X973300Y1882550D03*
X973300Y1895250D03*
X973300Y1907950D03*
X973300Y1920650D03*
D33*
X637450Y2003200D03*
D34*
X534700Y1977800D03*
X534700Y2003200D03*
X534700Y2028600D03*
D33*
X1816350Y818800D03*
D34*
X1919100Y844200D03*
X1919100Y818800D03*
X1919100Y793400D03*
D33*
X1816350Y623800D03*
D34*
X1919100Y649200D03*
X1919100Y623800D03*
X1919100Y598400D03*
D37*
X1843900Y283300D03*
X1843900Y207300D03*
X1843900Y131300D03*
D38*
X2122900Y131300D03*
D37*
X2122900Y169300D03*
X2122900Y207300D03*
X2122900Y245300D03*
D38*
X2122900Y283300D03*
D31*
X1718500Y207400D03*
D32*
X1741350Y135600D03*
X1695650Y135600D03*
D35*
X1723500Y1342000D03*
X1873500Y1342000D03*
X1923500Y1342000D03*
X1973500Y1342000D03*
X1973500Y1267000D03*
X1923500Y1267000D03*
X1873500Y1267000D03*
X1723500Y1267000D03*
D31*
X2301500Y463400D03*
D32*
X2324350Y391600D03*
X2278650Y391600D03*
D39*
X2304200Y1383300D03*
X2278800Y1383300D03*
X2278800Y1322300D03*
X2304200Y1322300D03*
D31*
X2234500Y1345600D03*
D32*
X2211650Y1417400D03*
X2257350Y1417400D03*
D39*
X2133400Y1382300D03*
X2108000Y1382300D03*
X2108000Y1321300D03*
X2133400Y1321300D03*
D31*
X2063600Y1344300D03*
D32*
X2040750Y1416100D03*
X2086450Y1416100D03*
D31*
X2243400Y1852700D03*
D32*
X2266250Y1780900D03*
X2220550Y1780900D03*
D31*
X2323400Y1852700D03*
D32*
X2346250Y1780900D03*
X2300550Y1780900D03*
D40*
X2325700Y1687600D03*
D41*
X2253900Y1664750D03*
X2253900Y1710450D03*
D42*
X2323500Y557300D03*
X2098500Y557300D03*
D31*
X2320600Y1449300D03*
D32*
X2297750Y1521100D03*
X2343450Y1521100D03*
D43*
X275200Y400100D03*
X275200Y466100D03*
D44*
X1961100Y1662700D03*
X1961100Y1688100D03*
X1961100Y1713500D03*
X1961100Y1738900D03*
X1961100Y1764300D03*
X1961100Y1789700D03*
X1961100Y1815100D03*
X1961100Y1840500D03*
X1961100Y1865900D03*
X1961100Y1891300D03*
X1961100Y1916700D03*
X1961100Y1942100D03*
X1808700Y1942100D03*
X1808700Y1916700D03*
X1808700Y1891300D03*
X1808700Y1865900D03*
X1808700Y1840500D03*
X1808700Y1815100D03*
X1808700Y1789700D03*
X1808700Y1764300D03*
X1808700Y1738900D03*
X1808700Y1713500D03*
X1808700Y1688100D03*
X1961100Y1637300D03*
X1808700Y1662700D03*
X1808700Y1637300D03*
X1961100Y1611900D03*
X1808700Y1611900D03*
X1961100Y1967500D03*
X1808700Y1967500D03*
X1961100Y1992900D03*
X1961100Y2018300D03*
X1961100Y2043700D03*
X1961100Y2069100D03*
X1961100Y2094500D03*
X1961100Y2119900D03*
X1961100Y2145300D03*
X1961100Y2170700D03*
X1961100Y2196100D03*
X1808700Y2196100D03*
X1808700Y2170700D03*
X1808700Y2145300D03*
X1808700Y2119900D03*
X1808700Y2094500D03*
X1808700Y2069100D03*
X1808700Y2043700D03*
X1808700Y2018300D03*
X1808700Y1992900D03*
X1834100Y1637300D03*
X1834100Y1688100D03*
X1834100Y1713500D03*
X1834100Y1738900D03*
D45*
X1898700Y2450650D03*
X1898700Y2437950D03*
X1898700Y2425250D03*
X1898700Y2412550D03*
X1953700Y2412550D03*
X1953700Y2425250D03*
X1953700Y2437950D03*
X1953700Y2450650D03*
X1898700Y2348650D03*
X1898700Y2335950D03*
X1898700Y2323250D03*
X1898700Y2310550D03*
X1953700Y2310550D03*
X1953700Y2323250D03*
X1953700Y2335950D03*
X1953700Y2348650D03*
D40*
X2228300Y2176400D03*
D41*
X2300100Y2199250D03*
X2300100Y2153550D03*
D40*
X2227300Y2094400D03*
D41*
X2299100Y2117250D03*
X2299100Y2071550D03*
D35*
X1763100Y2304200D03*
X1763100Y2329600D03*
X1763100Y2355000D03*
X1763100Y2380400D03*
X1763100Y2406600D03*
X1763100Y2431200D03*
X1585300Y2380400D03*
X1585300Y2405800D03*
X1585300Y2355000D03*
X1585300Y2329600D03*
D46*
X1662200Y1325000D03*
X1662200Y1285000D03*
D47*
X1836700Y1410800D03*
X1836700Y1385400D03*
X1897700Y1385400D03*
X1897700Y1410800D03*
D35*
X1723500Y1190000D03*
X1873500Y1190000D03*
X1923500Y1190000D03*
X1973500Y1190000D03*
X1973500Y1115000D03*
X1923500Y1115000D03*
X1873500Y1115000D03*
X1723500Y1115000D03*
D31*
X2078500Y1114600D03*
D32*
X2055650Y1186400D03*
X2101350Y1186400D03*
D46*
X1665200Y1176300D03*
X1665200Y1136300D03*
D39*
X2259000Y1151300D03*
X2233600Y1151300D03*
X2233600Y1090300D03*
X2259000Y1090300D03*
D18*
X2326900Y284000D03*
X2255100Y284000D03*
D46*
X1062000Y1665000D03*
X1062000Y1625000D03*
D19*
X2228000Y854900D03*
X2228000Y783100D03*
D25*
X1774220Y1815000D03*
X1745780Y1815000D03*
D19*
X385000Y1929100D03*
X385000Y2000900D03*
D18*
X697100Y1805000D03*
X768900Y1805000D03*
D48*
X459000Y1897000D03*
X445000Y2054000D03*
X687000Y1879580D03*
D49*
X2490000Y1028000D03*
X2517000Y1001000D03*
D50*
X2324000Y361000D03*
D49*
X2170000Y1211000D03*
X2194000Y1449000D03*
X2124000Y1542000D03*
X2298000Y1572000D03*
X2055000Y1212000D03*
X1963000Y1096000D03*
X1992000Y932000D03*
X1963000Y891000D03*
X1992000Y747000D03*
X1963000Y695000D03*
X1992000Y551000D03*
X2255000Y1624000D03*
X1709000Y670000D03*
X1709000Y1053000D03*
X1709000Y866000D03*
X2198000Y1664000D03*
X2073000Y2432000D03*
X1857000Y2446000D03*
X1999000Y2476000D03*
X2074000Y2329000D03*
X1857000Y2344000D03*
X1998000Y2370000D03*
X2329000Y2200000D03*
X2330000Y2117000D03*
X2040000Y1467000D03*
X1912000Y1385000D03*
X2276000Y1749000D03*
X2346000Y1803000D03*
X1775000Y253000D03*
X1726000Y1892000D03*
X1992000Y1720000D03*
X1678000Y1921000D03*
X1043000Y1888000D03*
D48*
X1559000Y335000D03*
D49*
X1726000Y1815000D03*
X980000Y2270000D03*
X980000Y1986000D03*
X980000Y1758000D03*
X980000Y1405000D03*
X980000Y979000D03*
X980000Y606000D03*
X980000Y40000D03*
X1790000Y40000D03*
X2370000Y40000D03*
X2480000Y370000D03*
X2480000Y623000D03*
X2480000Y879000D03*
X2470000Y1389000D03*
X2470000Y1839000D03*
X2470000Y2287000D03*
X2390000Y2479000D03*
X2101000Y1536000D03*
X2101000Y1460000D03*
X2130000Y1244000D03*
X1894000Y1032000D03*
X1627000Y948000D03*
X1627000Y977000D03*
X1913000Y1411000D03*
X2314000Y1284000D03*
X2264000Y1234000D03*
X2078000Y1076000D03*
X2016000Y1300000D03*
X2016000Y1259000D03*
X2269000Y1077000D03*
X1847000Y1159000D03*
X1644000Y1159000D03*
X1110000Y1665000D03*
X2274000Y1223000D03*
X2325000Y1274000D03*
X2204000Y1249000D03*
X2147000Y1474000D03*
X2134000Y1581000D03*
X2096000Y1704000D03*
X1679000Y1361000D03*
X994000Y1908000D03*
X1416000Y1881000D03*
X994000Y1895250D03*
X1416000Y1858000D03*
X2201000Y1506000D03*
X1644000Y1383000D03*
X1605000Y1308000D03*
X1577000Y1498000D03*
X1595000Y1364000D03*
X2173000Y2227000D03*
X2173000Y2145000D03*
X1874000Y2402000D03*
X1998000Y2392000D03*
X1999000Y2500000D03*
X1873000Y2299000D03*
X1919000Y1955000D03*
X1760000Y1609000D03*
X1610000Y1840300D03*
X1602000Y185000D03*
X1559000Y1436000D03*
X2226000Y389000D03*
X1651000Y518000D03*
X1576000Y609000D03*
X1545000Y1436000D03*
X2131000Y1595000D03*
X2045000Y1704000D03*
X2230000Y1468000D03*
X2189000Y1475000D03*
X2150000Y1598000D03*
X2145000Y1964000D03*
X2088000Y1606000D03*
X2163000Y1691000D03*
X2163000Y1964000D03*
X2070000Y1521000D03*
X2036000Y1738000D03*
X2085000Y1738000D03*
X2122000Y1936000D03*
X2085000Y1841000D03*
X2010000Y1764000D03*
X2098000Y1764000D03*
X2293000Y1903000D03*
X2106000Y1918000D03*
X1919000Y1904000D03*
X1864000Y1904000D03*
X2036000Y1748000D03*
X2098000Y1748000D03*
X2078000Y1050000D03*
X2014000Y1059000D03*
X2157000Y1623000D03*
X2105000Y1667000D03*
X1864000Y1930000D03*
X2388000Y1738000D03*
X2107000Y1799000D03*
X1920000Y1853000D03*
X1862000Y1853000D03*
X2326000Y1572000D03*
X2191000Y1609000D03*
X2147000Y1609000D03*
X2109000Y1647000D03*
X2321000Y1409000D03*
X2216000Y2378000D03*
X2198000Y2297000D03*
X2360000Y2352000D03*
X2346000Y2154000D03*
X2133000Y1306000D03*
X2304000Y1306000D03*
X2228000Y1033000D03*
X1862000Y1838000D03*
X2182000Y1747000D03*
X2134000Y1785000D03*
X1920000Y1803000D03*
D48*
X768400Y1854000D03*
X768400Y1953000D03*
D49*
X660000Y1805000D03*
D48*
X418000Y1586000D03*
M02*
